<?xml version="1.0" encoding="utf-8"?>
<!-- Generator: Adobe Illustrator 27.8.1, SVG Export Plug-In . SVG Version: 6.00 Build 0)  -->
<svg version="1.1" id="katman_1" xmlns="http://www.w3.org/2000/svg" xmlns:xlink="http://www.w3.org/1999/xlink" x="0px" y="0px"
	 viewBox="0 0 242 78.6" style="enable-background:new 0 0 242 78.6;" xml:space="preserve">
<style type="text/css">
	.st0{fill:#FFFFFF;}
	.st1{fill:url(#SVGID_1_);}
	.st2{fill:url(#SVGID_00000044893940896584162390000000620802293204673929_);}
	.st3{fill:url(#SVGID_00000136389333575148343760000005860997050818482056_);}
	.st4{fill:url(#SVGID_00000118390872399051469810000011497771698321195917_);}
	.st5{fill:#F49122;}
	.st6{fill:url(#SVGID_00000122693259859873061390000008706879937995997066_);}
	.st7{fill:url(#SVGID_00000129176219188872247780000010808730148949197446_);}
	.st8{fill:url(#SVGID_00000034787516673642738230000007601443845799219132_);}
	.st9{fill:url(#SVGID_00000034071092065027213040000013082580629818161553_);}
	.st10{fill:#EB3E3B;}
	.st11{clip-path:url(#SVGID_00000097466530235943509840000001144694224318500738_);}
	.st12{fill:#D5DC32;}
	.st13{fill:#F7EC36;}
	.st14{fill:none;}
	.st15{fill-rule:evenodd;clip-rule:evenodd;fill:#2B2B38;}
	.st16{fill:none;stroke:#2B2B38;stroke-width:0.7013;stroke-miterlimit:2.8054;}
	.st17{fill:none;stroke:#1D1D1B;stroke-width:2.8054;stroke-miterlimit:7.0134;}
	.st18{fill:#DDDDDD;}
	.st19{fill:#D5DD32;}
	.st20{fill:#EDEDED;}
	.st21{fill:url(#SVGID_00000021112718546316808390000015670646311078078909_);}
	.st22{fill-rule:evenodd;clip-rule:evenodd;}
	.st23{fill:#EC403E;}
	.st24{fill:#D4DB32;}
	.st25{fill:none;stroke:#FFFFFF;stroke-width:0.7013;stroke-miterlimit:7.0134;}
	.st26{fill-rule:evenodd;clip-rule:evenodd;fill:#FFFFFF;}
	.st27{clip-path:url(#SVGID_00000127745627319210482590000004675043269817557939_);}
	.st28{clip-path:url(#SVGID_00000094607375461828036220000014847540625753880713_);}
	
		.st29{clip-path:url(#SVGID_00000168101044023305320190000007220760118224882059_);fill-rule:evenodd;clip-rule:evenodd;fill:#FFFFFF;}
	.st30{clip-path:url(#SVGID_00000092455346054598253710000017679520921510165921_);}
	.st31{clip-path:url(#SVGID_00000101799473098778503380000006228576867179272599_);}
	.st32{clip-path:url(#SVGID_00000137091865446695069810000002105525056191749030_);}
	.st33{clip-path:url(#SVGID_00000167382410959409757550000015007100266057906617_);}
	.st34{clip-path:url(#SVGID_00000017474819080912821960000002143191714738637196_);}
	.st35{clip-path:url(#SVGID_00000152244716499102541590000014203451256230579109_);fill:#E53131;}
	.st36{clip-path:url(#SVGID_00000121970934990627695470000008020338272497459589_);}
	.st37{clip-path:url(#SVGID_00000012466786690308405770000012441051550918995341_);fill:#E53131;}
	.st38{clip-path:url(#SVGID_00000071551034148852659610000008252686844854218409_);}
	.st39{clip-path:url(#SVGID_00000181066218777136756400000005980463884782977933_);fill:#E53131;}
	.st40{clip-path:url(#SVGID_00000067229902784483727000000000787267118907544742_);}
	.st41{clip-path:url(#SVGID_00000093155799954148077380000018159128784165103537_);fill:#E53131;}
	.st42{clip-path:url(#SVGID_00000119813646875884643910000015901771797926545309_);}
	.st43{clip-path:url(#SVGID_00000132058111271320888290000006628797235606650511_);fill:#E53131;}
	.st44{clip-path:url(#SVGID_00000170236652137032024390000003201671505552365735_);}
	.st45{clip-path:url(#SVGID_00000099653800103092344910000008533550749587683004_);fill:#E53131;}
	.st46{clip-path:url(#SVGID_00000076580888890349655570000010340233101871090049_);}
	.st47{clip-path:url(#SVGID_00000016784597853853604880000014182077838602938521_);}
	.st48{clip-path:url(#SVGID_00000005963771788910407520000005731166972090352788_);}
	.st49{clip-path:url(#SVGID_00000005261285074646760180000015228476638901235641_);}
	
		.st50{clip-path:url(#SVGID_00000014625317855564018110000001903440804168496801_);fill-rule:evenodd;clip-rule:evenodd;fill:#E53F3E;}
	.st51{clip-path:url(#SVGID_00000041262647216020806110000007252885774277048214_);}
	.st52{clip-path:url(#SVGID_00000137110513301686943360000018137086109284387499_);}
	.st53{clip-path:url(#SVGID_00000018200592123125657620000010042289785604023707_);}
	.st54{clip-path:url(#SVGID_00000149362941420031675890000015905848904158765707_);}
	.st55{clip-path:url(#SVGID_00000075162578563778534710000011377984694071780015_);}
	.st56{clip-path:url(#SVGID_00000143597012265359365530000011405331970833190561_);}
	
		.st57{clip-path:url(#SVGID_00000098217232584327007040000013313408436071407017_);fill-rule:evenodd;clip-rule:evenodd;fill:#FFFFFF;}
	.st58{clip-path:url(#SVGID_00000158749061360386525710000003046235572708431791_);}
	.st59{clip-path:url(#SVGID_00000119802650985439404650000008927043736165980323_);}
	.st60{clip-path:url(#SVGID_00000115510026784808688060000003174317028075052676_);}
	.st61{clip-path:url(#SVGID_00000082336640496389613540000002954378432881498772_);}
	.st62{clip-path:url(#SVGID_00000044867898943811805050000001666824033782146950_);}
	.st63{clip-path:url(#SVGID_00000018224782375116047800000002137437426486549667_);fill:#E53131;}
	.st64{clip-path:url(#SVGID_00000065781396368111086650000011640366186995493544_);}
	.st65{clip-path:url(#SVGID_00000178206856363898836240000011914967077845960834_);fill:#E53131;}
	.st66{clip-path:url(#SVGID_00000098190624897336499450000002524958142189804425_);}
	.st67{clip-path:url(#SVGID_00000052063711761207588680000009187278126792660111_);fill:#E53131;}
	.st68{clip-path:url(#SVGID_00000016074063898768489460000003126417163172084372_);}
	.st69{clip-path:url(#SVGID_00000084509836638138467810000013651681230349955248_);fill:#E53131;}
	.st70{clip-path:url(#SVGID_00000017485951963294393470000014411389046551337857_);}
	.st71{clip-path:url(#SVGID_00000132068030765535244370000001918269398355064995_);fill:#E53131;}
	.st72{clip-path:url(#SVGID_00000067951922012381621890000003374500597101110670_);}
	.st73{clip-path:url(#SVGID_00000077304092154032354140000014888803141758894238_);fill:#E53131;}
	.st74{clip-path:url(#SVGID_00000000902669204891872060000015414551400628404357_);}
	.st75{clip-path:url(#SVGID_00000039814811270061027310000009431943802063030426_);}
	.st76{clip-path:url(#SVGID_00000094600028460450849880000017854083756722795440_);}
	.st77{clip-path:url(#SVGID_00000170251826964771311210000017903475964469374389_);}
	
		.st78{clip-path:url(#SVGID_00000146473072389082193880000008908166800282492091_);fill-rule:evenodd;clip-rule:evenodd;fill:#E53F3E;}
	.st79{clip-path:url(#SVGID_00000027604007426622119980000012259549646686236323_);}
	.st80{clip-path:url(#SVGID_00000180326191448281421690000007284140959365737092_);}
	.st81{clip-path:url(#SVGID_00000021087204034898797470000005861411969876713116_);}
	.st82{clip-path:url(#SVGID_00000013914230884656765390000011979902810988636561_);}
	.st83{clip-path:url(#SVGID_00000145036194712326542870000014794476664577278118_);}
	.st84{clip-path:url(#SVGID_00000121975079248217824550000001929163977311778976_);}
	
		.st85{clip-path:url(#SVGID_00000099631946589363789610000002630219958475796096_);fill-rule:evenodd;clip-rule:evenodd;fill:#FFFFFF;}
	.st86{clip-path:url(#SVGID_00000173137206179615688540000007847650297541241255_);}
	.st87{clip-path:url(#SVGID_00000001655397649339476790000009045860196887416463_);}
	.st88{clip-path:url(#SVGID_00000083073653222523586420000015062248834775495348_);}
	.st89{clip-path:url(#SVGID_00000016061894299914397320000014462658774335777718_);fill:#E63131;}
	.st90{clip-path:url(#SVGID_00000081629459988362293570000003750404901747635348_);}
	.st91{clip-path:url(#SVGID_00000080892894669499595590000002348540975397890450_);fill:#E63131;}
	.st92{clip-path:url(#SVGID_00000135666705175571147950000016708138033297129628_);}
	.st93{clip-path:url(#SVGID_00000052792948569166336380000003849822054445663124_);fill:#E63131;}
	.st94{clip-path:url(#SVGID_00000153666471858280178930000012257506974771801263_);}
	.st95{clip-path:url(#SVGID_00000155852746799525691000000008071585432232950661_);fill:#E63131;}
	.st96{clip-path:url(#SVGID_00000025418465125916439440000015003757828867168419_);}
	.st97{clip-path:url(#SVGID_00000038375018988624050550000017015499467138458028_);fill:#E63131;}
	.st98{clip-path:url(#SVGID_00000040559832908485642090000008826144427013086880_);}
	.st99{clip-path:url(#SVGID_00000009559660467861770120000002025204500989656995_);fill:#E63131;}
	.st100{clip-path:url(#SVGID_00000136373032500760566890000005897427838928150194_);}
	.st101{clip-path:url(#SVGID_00000011718443088561051300000016195208259448509368_);}
	.st102{clip-path:url(#SVGID_00000048488213502477771740000008292167941646339508_);}
	.st103{clip-path:url(#SVGID_00000007416272612369458840000003186709799645759371_);}
	.st104{clip-path:url(#SVGID_00000145760302138107012720000001963679403565399219_);}
	
		.st105{clip-path:url(#SVGID_00000062166612849002125580000009208825574864308619_);fill-rule:evenodd;clip-rule:evenodd;fill:#E6403E;}
	.st106{clip-path:url(#SVGID_00000018950028271157333810000012463379213629464202_);}
	.st107{clip-path:url(#SVGID_00000128474567882655653020000000867168519300920223_);}
	.st108{clip-path:url(#SVGID_00000084517216329326147590000016420374777416040841_);}
	.st109{clip-path:url(#SVGID_00000165928324805390346440000010568685787198201526_);}
	.st110{clip-path:url(#SVGID_00000112603347127126104200000015896329629147799731_);}
	.st111{clip-path:url(#SVGID_00000181049168329984150950000015745506714242685370_);}
	.st112{clip-path:url(#SVGID_00000106841864265191877550000013352996071299176380_);}
	.st113{clip-path:url(#SVGID_00000149339702403058982200000004925295912534579377_);}
	.st114{clip-path:url(#SVGID_00000181059000425575892430000000825484246991914385_);}
	.st115{clip-path:url(#SVGID_00000119795769630475642190000009348364200470626229_);}
	.st116{clip-path:url(#SVGID_00000076594856757897303740000016081780224395207331_);}
	.st117{clip-path:url(#SVGID_00000007389770274087848250000000394307647517651364_);}
	
		.st118{clip-path:url(#SVGID_00000142870236383322194690000014934020782935283634_);fill-rule:evenodd;clip-rule:evenodd;fill:#FFFFFF;}
	.st119{clip-path:url(#SVGID_00000170243331817560258590000000408429519389839760_);}
	.st120{clip-path:url(#SVGID_00000131342045301086277910000013157405047147011007_);}
	.st121{clip-path:url(#SVGID_00000009561285935324509360000010893700315960580509_);}
	.st122{clip-path:url(#SVGID_00000104675369436418570010000006749922706073977762_);fill:#E63131;}
	.st123{clip-path:url(#SVGID_00000018202457486467695680000005798219311242040205_);}
	.st124{clip-path:url(#SVGID_00000061468558675043347070000009097400571628193952_);fill:#E63131;}
	.st125{clip-path:url(#SVGID_00000182498785549725472280000000970997226699645583_);}
	.st126{clip-path:url(#SVGID_00000032649571201367188310000010408829294248530593_);fill:#E63131;}
	.st127{clip-path:url(#SVGID_00000156559437435593346110000003241617034719674756_);}
	.st128{clip-path:url(#SVGID_00000158021168859111853830000004511169812477343419_);fill:#E63131;}
	.st129{clip-path:url(#SVGID_00000162344826413532220570000017686973702096674696_);}
	.st130{clip-path:url(#SVGID_00000075144343989241558430000003677087936289649287_);fill:#E63131;}
	.st131{clip-path:url(#SVGID_00000172403404950019157720000016948429507212952724_);}
	.st132{clip-path:url(#SVGID_00000061468994954032421090000012702034380932707489_);fill:#E63131;}
	.st133{clip-path:url(#SVGID_00000083090298117684042310000016359885935851081633_);}
	.st134{clip-path:url(#SVGID_00000082359242608390757520000009983363181432573832_);}
	.st135{clip-path:url(#SVGID_00000131359654987217858040000000337078325565709233_);}
	.st136{clip-path:url(#SVGID_00000006694820759747674990000012291218364888081034_);}
	.st137{clip-path:url(#SVGID_00000176033501948624034770000007173032868260657055_);}
	.st138{clip-path:url(#SVGID_00000070821651174713173270000008586096911632699787_);}
	.st139{clip-path:url(#SVGID_00000125562638281144526630000014230563377378381199_);}
	.st140{clip-path:url(#SVGID_00000129183423823532484640000011262189776773761193_);}
	.st141{clip-path:url(#SVGID_00000168113243720645276890000013143249092949744830_);}
	.st142{clip-path:url(#SVGID_00000122719856748329306960000008922138326448799413_);}
	.st143{clip-path:url(#SVGID_00000104674517563460419800000002786595150498335926_);}
	
		.st144{clip-path:url(#SVGID_00000033335310069808447470000000715564086275198908_);fill-rule:evenodd;clip-rule:evenodd;fill:#E6403E;}
	.st145{clip-path:url(#SVGID_00000084526497008896982970000001516148863807223728_);}
	.st146{clip-path:url(#SVGID_00000076568609960939140090000011763291703242403762_);}
	.st147{clip-path:url(#SVGID_00000091709441128905960200000008633118290924935582_);}
	.st148{clip-path:url(#SVGID_00000080189551537156120100000003269021571585838482_);}
	.st149{clip-path:url(#SVGID_00000001641150971890215020000004288144021439956656_);}
	.st150{clip-path:url(#SVGID_00000064347054828672638160000002514840927778621850_);}
	
		.st151{clip-path:url(#SVGID_00000154389024158439817490000009393476085688379318_);fill-rule:evenodd;clip-rule:evenodd;fill:#FFFFFF;}
	.st152{clip-path:url(#SVGID_00000113349397353530410150000016261505256687400890_);}
	.st153{clip-path:url(#SVGID_00000140714593396596358770000003147498255391969415_);}
	.st154{clip-path:url(#SVGID_00000047051418681049903140000009351586764577962927_);}
	.st155{clip-path:url(#SVGID_00000088838613096333798520000002949603064514530460_);}
	.st156{clip-path:url(#SVGID_00000100380945648219981030000010537317957086950043_);}
	.st157{clip-path:url(#SVGID_00000146473303247525709270000015461159114931667609_);fill:#E53131;}
	.st158{clip-path:url(#SVGID_00000097495674380116117730000013646208763445352582_);}
	.st159{clip-path:url(#SVGID_00000016058186867509756200000002487775054554408101_);fill:#E53131;}
	.st160{clip-path:url(#SVGID_00000121257843894023167590000002408686226243937718_);}
	.st161{clip-path:url(#SVGID_00000106832540178352262210000009677078746334324145_);fill:#E53131;}
	.st162{clip-path:url(#SVGID_00000039101310933197832810000009951821457824350594_);}
	.st163{clip-path:url(#SVGID_00000106849257148162332770000004190657447925589934_);fill:#E53131;}
	.st164{clip-path:url(#SVGID_00000145030297281283294660000004394478362668324790_);}
	.st165{clip-path:url(#SVGID_00000076570880114207032880000012356485997438046643_);fill:#E53131;}
	.st166{clip-path:url(#SVGID_00000143577629141329545890000001692945831094718630_);}
	.st167{clip-path:url(#SVGID_00000045599306472957318760000006234809785244400273_);fill:#E53131;}
	.st168{clip-path:url(#SVGID_00000106111751909701506730000014641528289092103824_);}
	.st169{clip-path:url(#SVGID_00000106867169384125844690000014848611387114290316_);}
	.st170{clip-path:url(#SVGID_00000171710691219499990530000003293466758447355789_);}
	.st171{clip-path:url(#SVGID_00000111911673917314813680000017844821132658225850_);}
	
		.st172{clip-path:url(#SVGID_00000085243365838364713810000004356269804149551790_);fill-rule:evenodd;clip-rule:evenodd;fill:#E53F3E;}
	.st173{clip-path:url(#SVGID_00000091703871978463595030000003465379719127238587_);}
	.st174{clip-path:url(#SVGID_00000163765479209517342620000011440579514362160541_);}
	.st175{clip-path:url(#SVGID_00000127748292778908046450000015542207838313466764_);}
	.st176{clip-path:url(#SVGID_00000050623145265800470040000016968778176400867738_);}
	.st177{clip-path:url(#SVGID_00000064313439842797648980000006594639442964267687_);}
	.st178{clip-path:url(#SVGID_00000172419130398637017170000008533880622477826980_);}
	
		.st179{clip-path:url(#SVGID_00000140720180974052851750000010354466412309195422_);fill-rule:evenodd;clip-rule:evenodd;fill:#FFFFFF;}
	.st180{clip-path:url(#SVGID_00000103260821057985302820000004522181685604950417_);}
	.st181{clip-path:url(#SVGID_00000179623656505295953040000015380720644723305893_);}
	.st182{clip-path:url(#SVGID_00000076576470725350722880000018119884777760751754_);}
	.st183{clip-path:url(#SVGID_00000072241625350364867560000007849380300093952934_);fill:#E63131;}
	.st184{clip-path:url(#SVGID_00000047780203446574711400000011380701799776763819_);}
	.st185{clip-path:url(#SVGID_00000044861229398423697900000017012297862085188781_);fill:#E63131;}
	.st186{clip-path:url(#SVGID_00000152957317511872508030000000117799901427202948_);}
	.st187{clip-path:url(#SVGID_00000115485872154904631120000000156841100538690696_);fill:#E63131;}
	.st188{clip-path:url(#SVGID_00000025424823682700020480000002775841025127148419_);}
	.st189{clip-path:url(#SVGID_00000177469071757611439980000018430577085353878698_);fill:#E63131;}
	.st190{clip-path:url(#SVGID_00000045586345864419262870000002316951575775334036_);}
	.st191{clip-path:url(#SVGID_00000040569220007925296050000016505222091768108425_);fill:#E63131;}
	.st192{clip-path:url(#SVGID_00000089534152410544322200000010044252290888717699_);}
	.st193{clip-path:url(#SVGID_00000162347502360169705170000016019808268269695921_);fill:#E63131;}
	.st194{clip-path:url(#SVGID_00000119097011101770299760000007348325112953615538_);}
	.st195{clip-path:url(#SVGID_00000013175593651083642210000008446529470056806275_);}
	.st196{clip-path:url(#SVGID_00000113349647756050563910000017137402679643821464_);}
	.st197{clip-path:url(#SVGID_00000167375419334577672300000002076475457473861505_);}
	.st198{clip-path:url(#SVGID_00000072252467346398019620000013667403191693565347_);}
	
		.st199{clip-path:url(#SVGID_00000072993849712696910060000002143197880607689389_);fill-rule:evenodd;clip-rule:evenodd;fill:#E6403E;}
	.st200{clip-path:url(#SVGID_00000094587289979184337460000016374963736686278577_);}
	.st201{clip-path:url(#SVGID_00000181776442873159173320000016095971071587667901_);}
	.st202{clip-path:url(#SVGID_00000022528648451713336640000010424686887864038536_);}
	.st203{clip-path:url(#SVGID_00000085224888234389339160000001913002027849838492_);}
	.st204{clip-path:url(#SVGID_00000140729150657093020100000001402761412920337541_);}
	.st205{clip-path:url(#SVGID_00000011726672226864833110000003477738085031946672_);}
	.st206{clip-path:url(#SVGID_00000106839394350730355850000007012875770851381686_);}
	.st207{clip-path:url(#SVGID_00000165197228223569722570000007115864573507303072_);}
	.st208{clip-path:url(#SVGID_00000134931533740067502820000013518280012718938245_);}
	.st209{clip-path:url(#SVGID_00000062894942314326179980000014598792395016822941_);}
	.st210{clip-path:url(#SVGID_00000041979744341500441530000013350115809971183269_);}
	.st211{clip-path:url(#SVGID_00000049941845005933514480000013700420672300245386_);}
	
		.st212{clip-path:url(#SVGID_00000175297018554522637410000005242296287670438026_);fill-rule:evenodd;clip-rule:evenodd;fill:#FFFFFF;}
	.st213{clip-path:url(#SVGID_00000120556407728184761130000009611327763119765144_);}
	.st214{clip-path:url(#SVGID_00000140007766203259887270000007648335941705030333_);}
	.st215{clip-path:url(#SVGID_00000062172853325711802850000013673876056309975973_);}
	.st216{clip-path:url(#SVGID_00000044169404257725194240000003721076782596477362_);fill:#E63131;}
	.st217{clip-path:url(#SVGID_00000088125502473978312720000014705166596025063354_);}
	.st218{clip-path:url(#SVGID_00000057126124922411988640000013585586825283770023_);fill:#E63131;}
	.st219{clip-path:url(#SVGID_00000022534497696292244680000001050369194694653878_);}
	.st220{clip-path:url(#SVGID_00000089542574590641179540000011208199222989792128_);fill:#E63131;}
	.st221{clip-path:url(#SVGID_00000058589980472853293370000007686628259198817198_);}
	.st222{clip-path:url(#SVGID_00000070093885250943325570000011864767285200927391_);fill:#E63131;}
	.st223{clip-path:url(#SVGID_00000040546917466697621810000005173349270550341767_);}
	.st224{clip-path:url(#SVGID_00000092435683257206682030000010772911366444714164_);fill:#E63131;}
	.st225{clip-path:url(#SVGID_00000165917634958403991230000011743396078920601739_);}
	.st226{clip-path:url(#SVGID_00000167395786816621543940000006227969606816275873_);fill:#E63131;}
	.st227{clip-path:url(#SVGID_00000000936130258214761220000007206684671931832504_);}
	.st228{clip-path:url(#SVGID_00000010296382797472460470000014655635359697567115_);}
	.st229{clip-path:url(#SVGID_00000080202275243271765110000004647394241741587332_);}
	.st230{clip-path:url(#SVGID_00000142160942573670358680000003324172469650495127_);}
	.st231{clip-path:url(#SVGID_00000114043285153915176520000012413963563402559138_);}
	.st232{clip-path:url(#SVGID_00000155107185218519176300000012961255450463093646_);}
	.st233{clip-path:url(#SVGID_00000095320366923334140700000012432228980502493068_);}
	.st234{clip-path:url(#SVGID_00000074435654518816105850000001224792911040510639_);}
	.st235{clip-path:url(#SVGID_00000029005317365574448310000007616959722101628307_);}
	.st236{clip-path:url(#SVGID_00000119096569879951219810000015422143204903045530_);}
	.st237{clip-path:url(#SVGID_00000138544167108012651180000004355202451925069749_);}
	
		.st238{clip-path:url(#SVGID_00000066477419765390305240000011855812374261863842_);fill-rule:evenodd;clip-rule:evenodd;fill:#E6403E;}
	.st239{clip-path:url(#SVGID_00000036218208215014146920000016954230029116781755_);}
	.st240{clip-path:url(#SVGID_00000095313925270637432800000007459402983899081903_);}
	.st241{clip-path:url(#SVGID_00000039849474197654162840000004107150734638338485_);}
	.st242{clip-path:url(#SVGID_00000099628017629962273630000004731568028957564350_);}
	.st243{clip-path:url(#SVGID_00000006705214785816315610000005164060738384022719_);}
	.st244{fill:#1D1D1B;}
	.st245{fill:none;stroke:#FFFFFF;stroke-width:2.8054;stroke-miterlimit:7.0134;}
	.st246{fill:#2B2B38;}
	.st247{fill:none;stroke:#FFFFFF;stroke-miterlimit:10;}
</style>
<g>
	<g>
		<g>
			<g>
				<path class="st23" d="M49.8,3.7h3.7c0.8,0,1.5,0.2,2,0.6c0.4,0.4,0.7,1.1,0.7,1.8c0,0.5-0.1,0.9-0.3,1.2
					c-0.1,0.4-0.4,0.6-0.8,0.8c0.4,0.1,0.6,0.1,0.9,0.3c0.3,0.1,0.4,0.3,0.6,0.5c0.1,0.2,0.3,0.4,0.4,0.7c0.1,0.3,0.1,0.5,0.1,0.8
					c0,0.4-0.1,0.8-0.2,1.2c-0.1,0.4-0.4,0.6-0.6,0.8c-0.3,0.2-0.6,0.4-1.1,0.6c-0.4,0.1-0.8,0.2-1.3,0.2h-4L49.8,3.7L49.8,3.7z
					 M52.2,7.4h0.4c0.8,0,1.2-0.3,1.2-0.9c0-0.6-0.4-0.9-1.2-0.9h-0.4C52.2,5.6,52.2,7.4,52.2,7.4z M52.2,11.3h0.6
					c0.6,0,1.1-0.1,1.3-0.2c0.3-0.1,0.4-0.4,0.4-0.8s-0.1-0.6-0.4-0.8c-0.3-0.1-0.7-0.2-1.3-0.2h-0.6V11.3z"/>
				<path class="st23" d="M67.3,8.5c0-0.7,0.1-1.4,0.4-2c0.3-0.6,0.6-1.1,1.1-1.6c0.5-0.4,1.1-0.8,1.7-1.1c0.6-0.3,1.3-0.4,2.1-0.4
					s1.5,0.1,2.1,0.4c0.6,0.3,1.2,0.6,1.7,1.1c0.5,0.4,0.8,1,1.1,1.6c0.3,0.6,0.4,1.3,0.4,2s-0.1,1.3-0.4,2
					c-0.3,0.6-0.6,1.1-1.1,1.6c-0.5,0.4-1.1,0.8-1.7,1.1s-1.3,0.4-2.1,0.4s-1.5-0.1-2.1-0.4c-0.6-0.3-1.2-0.6-1.7-1.1
					s-0.8-1-1.1-1.6S67.3,9.2,67.3,8.5z M69.9,8.5c0,0.4,0.1,0.7,0.2,1.1s0.4,0.6,0.6,0.8s0.6,0.4,0.8,0.6c0.4,0.1,0.7,0.2,1.1,0.2
					s0.7-0.1,1.1-0.2s0.6-0.3,0.8-0.6c0.3-0.2,0.4-0.5,0.6-0.8s0.2-0.7,0.2-1.1S75.1,7.8,75,7.4s-0.4-0.6-0.6-0.8
					c-0.3-0.2-0.6-0.4-0.8-0.6c-0.4-0.1-0.7-0.2-1.1-0.2S71.8,5.9,71.5,6c-0.4,0.1-0.6,0.3-0.8,0.6c-0.2,0.2-0.4,0.5-0.6,0.8
					C70,7.7,69.9,8.1,69.9,8.5z"/>
				<path class="st23" d="M90.4,8.6l-3.5-5h2.9l1.8,2.6l1.8-2.6h2.9l-3.5,5v4.6h-2.5L90.4,8.6L90.4,8.6z"/>
				<path class="st23" d="M106.6,13.2V3.7h2.5l4.6,5.8V3.7h2.5v9.5h-2.5l-4.6-5.8v5.8C109.1,13.2,106.6,13.2,106.6,13.2z"/>
				<path class="st23" d="M132.9,5.8H130v1.6h2.8v2.1H130v1.6h2.9v2.1h-5.4V3.7h5.4V5.8z"/>
				<path class="st23" d="M152,13.2h-3.1l-2.4-3.6v3.6h-2.5V3.7h3.9c0.6,0,1,0.1,1.4,0.2c0.4,0.1,0.7,0.4,1,0.6
					c0.3,0.3,0.4,0.6,0.6,0.9c0.1,0.4,0.2,0.7,0.2,1.1c0,0.7-0.1,1.3-0.5,1.8c-0.4,0.4-0.8,0.8-1.5,0.9L152,13.2z M146.5,8h0.5
					c0.5,0,0.8-0.1,1.1-0.3c0.3-0.2,0.4-0.5,0.4-0.8s-0.1-0.7-0.4-0.8c-0.3-0.2-0.6-0.3-1.1-0.3h-0.5V8z"/>
			</g>
		</g>
		<g>
			<g>
				<polygon class="st12" points="16.6,42.2 11.9,42.2 21.1,17.3 25.8,17.3 				"/>
			</g>
			<g>
				<polygon class="st13" points="7.7,42.2 3,42.2 12.2,17.3 16.9,17.3 				"/>
			</g>
			<g>
				<polygon class="st5" points="25.3,42.2 20.6,42.2 29.8,17.3 34.5,17.3 				"/>
			</g>
			<g>
				<polygon class="st23" points="34,42.2 29.3,42.2 38.5,17.3 43.2,17.3 				"/>
			</g>
		</g>
		<g>
			<path class="st0" d="M49.6,42.3V17.4h5.2c2.5,0,4.5,0.3,6,0.8c1.5,0.5,2.9,1.3,4.2,2.5c2.6,2.3,3.9,5.4,3.9,9.3s-1.3,6.9-4,9.3
				c-1.3,1.2-2.7,2-4.2,2.5c-1.4,0.5-3.3,0.7-5.8,0.7L49.6,42.3L49.6,42.3z M53.3,38.8H55c1.7,0,3.1-0.2,4.2-0.6
				c1.1-0.4,2.1-1,3-1.8c1.8-1.7,2.8-3.9,2.8-6.6s-0.9-4.9-2.7-6.7C60.7,21.7,58.2,21,55,21h-1.7L53.3,38.8L53.3,38.8z"/>
			<path class="st0" d="M81.9,31.6l-8.1-14.2h4.3l5.7,10l5.7-10h4.3l-8.1,14.2v10.7h-3.8V31.6z"/>
			<path class="st0" d="M100,42.3V15.8l18.2,19V17.4h3.8v26.4l-18.2-18.9v17.4L100,42.3L100,42.3z"/>
			<path class="st0" d="M149.3,36.3h-10.7l-2.8,6h-4.1l12.3-26.4l11.9,26.4h-4.1L149.3,36.3z M147.7,32.7l-3.7-8.5l-3.9,8.5H147.7z"
				/>
			<path class="st0" d="M164.8,42.3l5.3-26.7l8.6,19.4l8.8-19.4l4.7,26.7h-3.9l-2.4-15l-7.4,16.1l-7.2-16.2l-2.7,15L164.8,42.3
				L164.8,42.3z"/>
			<path class="st0" d="M207.8,17.4v24.9H204V17.4H207.8z"/>
			<path class="st0" d="M238.8,18.8v4.4c-2.2-1.8-4.4-2.7-6.7-2.7c-2.5,0-4.7,0.9-6.5,2.7c-1.8,1.8-2.7,4.1-2.7,6.7
				c0,2.6,0.9,4.8,2.7,6.6c1.8,1.8,3.9,2.7,6.5,2.7c1.3,0,2.5-0.2,3.4-0.6c0.5-0.2,1.1-0.5,1.6-0.8s1.1-0.8,1.8-1.3v4.6
				c-2.2,1.2-4.4,1.8-6.8,1.8c-3.6,0-6.6-1.3-9.1-3.7c-2.5-2.5-3.8-5.5-3.8-9c0-3.2,1.1-6,3.2-8.5c2.6-3,5.9-4.6,10-4.6
				C234.5,17,236.7,17.6,238.8,18.8z"/>
		</g>
	</g>
	<g>
		<path class="st24" d="M157.5,51.5v7.6h9.3v3.1h-9.3v13.2h-3.4V48.4h13v3.1H157.5z"/>
		<path class="st24" d="M175.8,48.4h14.4v3.1h-11.1V59H190v3.1h-10.8v10.2h11.1v3.1h-14.4V48.4z"/>
		<path class="st24" d="M211.1,53.6c-1-1.7-2.3-2.5-4.3-2.5c-2.2,0-4.5,1.5-4.5,3.8c0,2.1,2.1,3.2,3.7,3.9l1.9,0.8
			c3.8,1.5,6.7,3.6,6.7,8.1c0,4.9-3.8,8.4-8.6,8.4c-4.3,0-7.7-3.2-8.3-7.5l3.4-0.7c-0.1,2.9,2.3,5.1,5.2,5.1c2.9,0,5-2.5,5-5.3
			c0-2.9-2.3-4.1-4.6-5.1l-1.8-0.8c-3.1-1.3-5.9-3.1-5.9-6.8c0-4.3,3.9-6.9,7.9-6.9c3,0,5.5,1.5,6.9,4.1L211.1,53.6z"/>
		<path class="st24" d="M230.3,75.4h-3.4V51.5h-6.4v-3.1h16.1v3.1h-6.4V75.4z"/>
	</g>
</g>
</svg>
