<?xml version="1.0" encoding="utf-8"?>
<!-- Generator: Adobe Illustrator 27.9.0, SVG Export Plug-In . SVG Version: 6.00 Build 0)  -->
<svg version="1.1" id="katman_1" xmlns="http://www.w3.org/2000/svg" xmlns:xlink="http://www.w3.org/1999/xlink" x="0px" y="0px"
	 viewBox="0 0 200.5 57.9" style="enable-background:new 0 0 200.5 57.9;" xml:space="preserve">
<style type="text/css">
	.st0{fill:#FFFFFF;}
</style>
<path class="st0" d="M198.4,55.9H2V2h196.4V55.9z M4.3,53.7h192V4.2H4.3V53.7z"/>
<g>
	<g>
		<path class="st0" d="M46.5,27.7c0-2.7,1.5-5.3,3.8-6.7c-1.5-2.1-3.9-3.4-6.5-3.5c-2.7-0.3-5.3,1.6-6.7,1.6s-3.5-1.6-5.8-1.6
			c-3,0.1-5.8,1.8-7.2,4.4c-3.1,5.4-0.8,13.4,2.2,17.8c1.5,2.1,3.3,4.5,5.5,4.5c2.2-0.1,3.1-1.4,5.8-1.4s3.5,1.4,5.8,1.4
			c2.4,0,3.9-2.2,5.4-4.3c1.1-1.5,1.9-3.2,2.5-5C48.3,33.7,46.5,30.9,46.5,27.7z M42.1,14.7c1.3-1.6,2-3.6,1.8-5.6
			c-2,0.2-3.9,1.2-5.2,2.7s-2,3.5-1.8,5.4C38.9,17.2,40.8,16.2,42.1,14.7L42.1,14.7z"/>
		<g>
			<path class="st0" d="M73.4,39H66l-1.8,5.2h-3.1l7-19.3h3.2l7,19.3h-3.2L73.4,39z M66.8,36.6h5.8l-2.9-8.5h-0.1
				C69.7,28.1,66.8,36.6,66.8,36.6z M93.4,37.2c0,4.4-2.3,7.2-5.9,7.2c-1.8,0.1-3.5-0.9-4.4-2.5H83v7h-2.9V30.2h2.8v2.3H83
				c0.9-1.6,2.6-2.5,4.5-2.5C91.1,30,93.4,32.8,93.4,37.2L93.4,37.2z M90.4,37.2c0-2.9-1.5-4.7-3.7-4.7S83,34.4,83,37.2
				s1.5,4.7,3.7,4.7C89,41.9,90.4,40.1,90.4,37.2L90.4,37.2z M108.9,37.2c0,4.4-2.3,7.2-5.9,7.2c-1.8,0.1-3.5-0.9-4.4-2.5h-0.1v7
				h-2.9V30.2h2.8v2.3h0.1c0.9-1.6,2.6-2.5,4.5-2.5C106.6,30,108.9,32.8,108.9,37.2L108.9,37.2z M105.9,37.2c0-2.9-1.5-4.7-3.7-4.7
				s-3.7,1.9-3.7,4.7s1.5,4.7,3.7,4.7C104.5,41.9,105.9,40.1,105.9,37.2L105.9,37.2z M119.2,38.9c0.2,1.9,2.1,3.2,4.6,3.2
				c2.4,0,4.2-1.3,4.2-3c0-1.5-1.1-2.4-3.6-3l-2.5-0.6c-3.5-0.9-5.2-2.5-5.2-5.2c0-3.3,2.9-5.6,7-5.6s6.9,2.3,7,5.6h-2.9
				c-0.2-1.9-1.8-3.1-4.1-3.1c-2.3,0-3.9,1.2-3.9,2.9c0,1.4,1,2.2,3.5,2.8l2.1,0.5c4,0.9,5.6,2.5,5.6,5.4c0,3.6-2.9,5.9-7.5,5.9
				c-4.3,0-7.2-2.2-7.4-5.7C116.2,38.9,119.2,38.9,119.2,38.9z M137.3,26.8v3.3h2.7v2.3h-2.7v7.8c0,1.2,0.5,1.8,1.7,1.8
				c0.3,0,0.6,0,1-0.1v2.3c-0.5,0.1-1.1,0.1-1.6,0.1c-2.9,0-4-1.1-4-3.8v-8.1h-2.1v-2.3h2.1v-3.3L137.3,26.8L137.3,26.8z
				 M141.5,37.2c0-4.4,2.6-7.2,6.7-7.2c4.1,0,6.7,2.8,6.7,7.2s-2.6,7.2-6.7,7.2S141.5,41.6,141.5,37.2z M151.9,37.2
				c0-3-1.4-4.8-3.7-4.8s-3.7,1.8-3.7,4.8c0,3.1,1.4,4.8,3.7,4.8S151.9,40.3,151.9,37.2L151.9,37.2z M157.2,30.2h2.8v2.4h0.1
				c0.4-1.5,1.8-2.6,3.4-2.5c0.3,0,0.7,0,1,0.1v2.7c-0.4-0.1-0.9-0.2-1.3-0.2c-0.9,0-1.7,0.3-2.3,0.9c-0.6,0.6-0.9,1.5-0.8,2.3v8.4
				h-2.9V30.2L157.2,30.2z M177.8,40.1c-0.4,2.6-2.9,4.3-6.1,4.3c-4.1,0-6.6-2.7-6.6-7.1s2.6-7.3,6.5-7.3s6.3,2.7,6.3,6.9v1H168v0.2
				c-0.1,1,0.3,2.1,1,2.9c0.7,0.8,1.7,1.2,2.8,1.1c1.4,0.1,2.7-0.7,3.3-2C175.1,40.1,177.8,40.1,177.8,40.1z M168,35.9h7
				c0.1-0.9-0.3-1.9-0.9-2.5c-0.7-0.7-1.6-1.1-2.5-1c-1,0-1.9,0.4-2.5,1C168.4,34,168,35,168,35.9z"/>
		</g>
	</g>
	<g>
		<path class="st0" d="M66.4,10.4c1.2-0.1,2.4,0.4,3.3,1.3c0.8,0.9,1.2,2.1,1.1,3.3c0,3-1.6,4.7-4.4,4.7H63v-9.3L66.4,10.4
			L66.4,10.4z M64.5,18.4h1.7c0.9,0.1,1.7-0.3,2.3-0.9s0.9-1.5,0.7-2.4c0.1-0.9-0.2-1.7-0.7-2.4c-0.6-0.6-1.4-1-2.3-0.9h-1.7V18.4z
			 M72.4,16.2c-0.1-1.3,0.5-2.5,1.6-3.1c1.1-0.7,2.4-0.7,3.5,0s1.7,1.9,1.6,3.1c0.1,1.3-0.5,2.5-1.6,3.1c-1.1,0.7-2.4,0.7-3.5,0
			S72.3,17.4,72.4,16.2z M77.6,16.2c0-1.5-0.7-2.4-1.9-2.4c-1.2,0-1.9,0.9-1.9,2.4s0.7,2.4,1.9,2.4S77.6,17.7,77.6,16.2z M87.8,19.7
			h-1.4L85,14.5h-0.1l-1.4,5.2H82l-1.9-7h1.4l1.3,5.3h0.1l1.4-5.3h1.3L87,18h0.1l1.2-5.3h1.4L87.8,19.7z M91.4,12.7h1.3v1.1h0.1
			c0.4-0.8,1.2-1.3,2.1-1.2c0.7-0.1,1.4,0.2,1.8,0.7c0.5,0.5,0.7,1.2,0.6,1.9v4.5h-1.4v-4.2c0-1.1-0.5-1.7-1.5-1.7
			c-0.5,0-0.9,0.2-1.2,0.5c-0.3,0.3-0.5,0.8-0.4,1.3v4.1h-1.4V12.7L91.4,12.7z M99.5,9.9h1.4v9.7h-1.4V9.9z M102.8,16.2
			c-0.1-1.3,0.5-2.5,1.6-3.1c1.1-0.7,2.4-0.7,3.5,0s1.7,1.9,1.6,3.1c0.1,1.3-0.5,2.5-1.6,3.1c-1.1,0.7-2.4,0.7-3.5,0
			S102.7,17.4,102.8,16.2z M108,16.2c0-1.5-0.7-2.4-1.9-2.4c-1.2,0-1.9,0.9-1.9,2.4s0.7,2.4,1.9,2.4S108,17.7,108,16.2z M110.9,17.7
			c0-1.3,0.9-2,2.6-2.1l1.9-0.1v-0.6c0-0.7-0.5-1.2-1.4-1.2c-0.8,0-1.3,0.3-1.5,0.8h-1.3c0.1-1.2,1.3-2,2.9-2c1.8,0,2.7,0.9,2.7,2.4
			v4.8h-1.3v-1h-0.1c-0.5,0.7-1.3,1.1-2.1,1.1c-0.6,0.1-1.2-0.1-1.6-0.5C111.2,18.9,110.9,18.3,110.9,17.7z M115.4,17.1v-0.6
			l-1.7,0.1c-1,0.1-1.4,0.4-1.4,1s0.5,1,1.3,1c0.4,0,0.9-0.1,1.2-0.4C115.2,17.9,115.4,17.5,115.4,17.1L115.4,17.1z M118.6,16.2
			c0-2.2,1.1-3.6,2.9-3.6c0.9,0,1.7,0.4,2.1,1.2h0.1V9.9h1.4v9.7h-1.3v-1.1h-0.1c-0.4,0.8-1.3,1.3-2.2,1.2
			C119.7,19.8,118.6,18.4,118.6,16.2z M120,16.2c0,1.5,0.7,2.4,1.9,2.4c1.2,0,1.9-0.9,1.9-2.4s-0.7-2.4-1.9-2.4
			C120.7,13.8,120,14.7,120,16.2z M130.9,16.2c-0.1-1.3,0.5-2.5,1.6-3.1c1.1-0.7,2.4-0.7,3.5,0s1.7,1.9,1.6,3.1
			c0.1,1.3-0.5,2.5-1.6,3.1c-1.1,0.7-2.4,0.7-3.5,0C131.3,18.6,130.7,17.4,130.9,16.2z M136,16.2c0-1.5-0.7-2.4-1.9-2.4
			s-1.9,0.9-1.9,2.4s0.7,2.4,1.9,2.4C135.4,18.6,136,17.7,136,16.2z M139.3,12.7h1.3v1.1h0.1c0.4-0.8,1.2-1.3,2.1-1.2
			c0.7-0.1,1.4,0.2,1.8,0.7c0.5,0.5,0.7,1.2,0.6,1.9v4.5h-1.4v-4.2c0-1.1-0.5-1.7-1.5-1.7c-0.5,0-0.9,0.2-1.2,0.5s-0.5,0.8-0.4,1.3
			v4.1h-1.4L139.3,12.7L139.3,12.7z M153.1,10.9v1.8h1.5v1.2h-1.5v3.6c0,0.7,0.3,1.1,1,1.1c0.2,0,0.4,0,0.5,0v1.2
			c-0.2,0-0.5,0.1-0.8,0.1c-1.5,0-2.1-0.5-2.1-1.9v-4h-1.1v-1.2h1.1V11h1.4V10.9z M156.5,9.9h1.4v3.9h0.1c0.4-0.8,1.2-1.3,2.1-1.3
			c0.7,0,1.4,0.2,1.8,0.7c0.5,0.5,0.7,1.2,0.6,1.9v4.5h-1.4v-4.2c0-1.1-0.5-1.7-1.5-1.7c-0.5,0-1,0.1-1.3,0.5
			c-0.3,0.3-0.5,0.8-0.5,1.3v4.1h-1.4L156.5,9.9L156.5,9.9z M170.6,17.8c-0.4,1.3-1.7,2.2-3,2c-0.9,0-1.8-0.4-2.5-1.1
			s-0.9-1.6-0.8-2.6c-0.1-0.9,0.2-1.9,0.8-2.6c0.6-0.7,1.5-1.1,2.5-1.1c1.9,0,3.1,1.3,3.1,3.5v0.5h-4.9v0.1c0,0.5,0.1,1,0.5,1.4
			s0.9,0.6,1.4,0.6c0.7,0.1,1.3-0.3,1.7-0.9L170.6,17.8L170.6,17.8z M165.7,15.5h3.5c0-0.5-0.1-0.9-0.5-1.3
			c-0.3-0.3-0.8-0.5-1.3-0.5s-1,0.2-1.3,0.5C165.9,14.6,165.7,15,165.7,15.5z"/>
	</g>
</g>
</svg>
