<?xml version="1.0" encoding="utf-8"?>
<!-- Generator: Adobe Illustrator 27.8.1, SVG Export Plug-In . SVG Version: 6.00 Build 0)  -->
<svg version="1.1" id="katman_1" xmlns="http://www.w3.org/2000/svg" xmlns:xlink="http://www.w3.org/1999/xlink" x="0px" y="0px"
	 viewBox="0 0 80 80" style="enable-background:new 0 0 80 80;" xml:space="preserve">
<style type="text/css">
	.st0{clip-path:url(#SVGID_00000033341152355785883800000001482612917895185303_);}
	.st1{fill:#2B2B38;}
</style>
<g>
	<defs>
		<rect id="SVGID_1_" x="-0.1" width="79.8" height="79.8"/>
	</defs>
	<clipPath id="SVGID_00000176025588360529457480000005127293267019105969_">
		<use xlink:href="#SVGID_1_"  style="overflow:visible;"/>
	</clipPath>
	<g style="clip-path:url(#SVGID_00000176025588360529457480000005127293267019105969_);">
		<path class="st1" d="M44.8,16.6h-10V20h10V16.6z"/>
		<path class="st1" d="M39.8,63.2c1.8,0,3.3-1.5,3.3-3.3s-1.5-3.3-3.3-3.3s-3.3,1.5-3.3,3.3S37.9,63.2,39.8,63.2z"/>
		<path class="st1" d="M53.1,73.2c3.7,0,6.7-3,6.7-6.7V13.3c0-3.7-3-6.7-6.7-6.7H26.5c-3.7,0-6.7,3-6.7,6.7v53.2
			c0,3.7,3,6.7,6.7,6.7H53.1z M23.2,66.5V13.3c0-1.8,1.5-3.3,3.3-3.3h26.6c1.8,0,3.3,1.5,3.3,3.3v53.2c0,1.8-1.5,3.3-3.3,3.3H26.5
			C24.6,69.8,23.2,68.3,23.2,66.5z"/>
	</g>
</g>
</svg>
