<?xml version="1.0" encoding="utf-8"?>
<!-- Generator: Adobe Illustrator 27.9.0, SVG Export Plug-In . SVG Version: 6.00 Build 0)  -->
<svg version="1.1" id="katman_1" xmlns="http://www.w3.org/2000/svg" xmlns:xlink="http://www.w3.org/1999/xlink" x="0px" y="0px"
	 viewBox="0 0 200.5 57.9" style="enable-background:new 0 0 200.5 57.9;" xml:space="preserve">
<style type="text/css">
	.st0{fill:#FFFFFF;}
	.st1{fill-rule:evenodd;clip-rule:evenodd;fill:#FFFFFF;}
</style>
<path class="st0" d="M198.4,55.9H2V2h196.4V55.9z M4.3,53.7h192V4.2H4.3V53.7z"/>
<g>
	<g>
		<path class="st1" d="M86.4,31c-3.2,0-5.7,2.6-5.7,5.7c0,3.2,2.6,5.7,5.7,5.7c3.2,0,5.7-2.6,5.7-5.7C92.1,33.6,89.5,31,86.4,31z
			 M86.4,40.2c-1.7,0-3.2-1.4-3.2-3.5c0-2.1,1.5-3.5,3.2-3.5c1.7,0,3.2,1.4,3.2,3.5C89.6,38.8,88.1,40.2,86.4,40.2z"/>
		<path class="st1" d="M98.9,31c-3.2,0-5.7,2.6-5.7,5.7c0,3.2,2.6,5.7,5.7,5.7c3.2,0,5.7-2.6,5.7-5.7C104.6,33.6,102.1,31,98.9,31z
			 M98.9,40.2c-1.7,0-3.2-1.4-3.2-3.5c0-2.1,1.5-3.5,3.2-3.5c1.7,0,3.2,1.4,3.2,3.5C102.1,38.8,100.6,40.2,98.9,40.2z"/>
	</g>
	<path class="st1" d="M74.4,14.9c0,1.1-0.3,2-1,2.7c-0.8,0.8-1.7,1.2-3,1.2c-1.2,0-2.2-0.4-3-1.2c-0.8-0.8-1.2-1.8-1.2-3
		c0-1.2,0.4-2.2,1.2-3c0.8-0.8,1.8-1.2,3-1.2c0.6,0,1.1,0.1,1.7,0.3c0.5,0.2,0.9,0.5,1.3,0.9l-0.7,0.7c-0.5-0.6-1.3-1-2.2-1
		c-0.8,0-1.6,0.3-2.2,0.9c-0.6,0.6-0.9,1.4-0.9,2.3s0.3,1.7,0.9,2.3c0.6,0.6,1.4,0.9,2.2,0.9c0.9,0,1.7-0.3,2.3-0.9
		c0.4-0.4,0.6-0.9,0.7-1.6h-2.9v-1h3.9C74.4,14.5,74.4,14.7,74.4,14.9"/>
	<path class="st0" d="M74.4,14.9c0,1.1-0.3,2-1,2.7c-0.8,0.8-1.7,1.2-3,1.2c-1.2,0-2.2-0.4-3-1.2c-0.8-0.8-1.2-1.8-1.2-3
		c0-1.2,0.4-2.2,1.2-3c0.8-0.8,1.8-1.2,3-1.2c0.6,0,1.1,0.1,1.7,0.3c0.5,0.2,0.9,0.5,1.3,0.9l-0.7,0.7c-0.5-0.6-1.3-1-2.2-1
		c-0.8,0-1.6,0.3-2.2,0.9c-0.6,0.6-0.9,1.4-0.9,2.3s0.3,1.7,0.9,2.3c0.6,0.6,1.4,0.9,2.2,0.9c0.9,0,1.7-0.3,2.3-0.9
		c0.4-0.4,0.6-0.9,0.7-1.6h-2.9v-1h3.9C74.4,14.5,74.4,14.7,74.4,14.9L74.4,14.9z"/>
	<path class="st1" d="M80.6,11.5h-3.7V14h3.3v1h-3.3v2.6h3.7v1h-4.7v-8.1h4.7V11.5z"/>
	<path class="st0" d="M80.6,11.5h-3.7V14h3.3v1h-3.3v2.6h3.7v1h-4.7v-8.1h4.7V11.5z"/>
	<path class="st1" d="M84.9,18.6h-1v-7.1h-2.3v-1h5.5v1h-2.3L84.9,18.6L84.9,18.6z"/>
	<path class="st0" d="M84.9,18.6h-1v-7.1h-2.3v-1h5.5v1h-2.3L84.9,18.6L84.9,18.6z"/>
	<path class="st1" d="M91.2,18.6h1v-8.1h-1V18.6z"/>
	<path class="st0" d="M91.2,18.6h1v-8.1h-1V18.6z"/>
	<path class="st1" d="M96.8,18.6h-1v-7.1h-2.3v-1h5.5v1h-2.3L96.8,18.6L96.8,18.6z"/>
	<path class="st0" d="M96.8,18.6h-1v-7.1h-2.3v-1h5.5v1h-2.3L96.8,18.6L96.8,18.6z"/>
	<path class="st1" d="M109.6,11.5c-0.8-0.8-1.8-1.2-3-1.2c-1.2,0-2.2,0.4-3,1.2c-0.8,0.8-1.2,1.8-1.2,3c0,1.2,0.4,2.2,1.2,3
		c0.8,0.8,1.8,1.2,3,1.2s2.2-0.4,3-1.2c0.8-0.8,1.2-1.8,1.2-3C110.8,13.4,110.4,12.4,109.6,11.5z M108.8,16.8
		c-0.6,0.6-1.3,0.9-2.2,0.9c-0.9,0-1.6-0.3-2.2-0.9c-0.6-0.6-0.9-1.4-0.9-2.3c0-0.9,0.3-1.7,0.9-2.3c0.6-0.6,1.3-0.9,2.2-0.9
		c0.9,0,1.6,0.3,2.2,0.9c0.6,0.6,0.9,1.4,0.9,2.3C109.7,15.5,109.4,16.2,108.8,16.8z"/>
	<path class="st0" d="M109.6,11.5c-0.8-0.8-1.8-1.2-3-1.2c-1.2,0-2.2,0.4-3,1.2c-0.8,0.8-1.2,1.8-1.2,3c0,1.2,0.4,2.2,1.2,3
		c0.8,0.8,1.8,1.2,3,1.2s2.2-0.4,3-1.2c0.8-0.8,1.2-1.8,1.2-3C110.8,13.4,110.4,12.4,109.6,11.5z M108.8,16.8
		c-0.6,0.6-1.3,0.9-2.2,0.9c-0.9,0-1.6-0.3-2.2-0.9c-0.6-0.6-0.9-1.4-0.9-2.3c0-0.9,0.3-1.7,0.9-2.3c0.6-0.6,1.3-0.9,2.2-0.9
		c0.9,0,1.6,0.3,2.2,0.9c0.6,0.6,0.9,1.4,0.9,2.3C109.7,15.5,109.4,16.2,108.8,16.8z"/>
	<path class="st1" d="M112.2,18.6v-8.1h1.3l3.9,6.3h0l0-1.6v-4.7h1v8.1h-1.1l-4.1-6.6h0l0,1.6v5H112.2z"/>
	<path class="st0" d="M112.2,18.6v-8.1h1.3l3.9,6.3h0l0-1.6v-4.7h1v8.1h-1.1l-4.1-6.6h0l0,1.6v5H112.2z"/>
	<rect x="151" y="25.3" class="st1" width="2.5" height="16.8"/>
	<polygon class="st1" points="173.6,31.4 170.8,38.7 170.7,38.7 167.7,31.4 165,31.4 169.5,41.6 166.9,47.2 169.5,47.2 176.4,31.4 	
		"/>
	<path class="st1" d="M159.7,31c-1.8,0-3.7,0.8-4.5,2.6l2.2,0.9c0.5-0.9,1.4-1.2,2.3-1.2c1.3,0,2.6,0.8,2.6,2.2v0.2
		c-0.5-0.3-1.4-0.7-2.6-0.7c-2.4,0-4.8,1.3-4.8,3.8c0,2.2,2,3.7,4.2,3.7c1.7,0,2.6-0.8,3.2-1.6h0.1v1.3h2.4v-6.4
		C164.8,32.7,162.6,31,159.7,31z M159.4,40.2c-0.8,0-2-0.4-2-1.4c0-1.3,1.4-1.8,2.7-1.8c1.1,0,1.6,0.2,2.3,0.6
		C162.2,39.1,160.9,40.2,159.4,40.2z"/>
	<path class="st1" d="M144.1,25.3h-6v16.8h2.5v-6.4h3.5c2.8,0,5.5-2,5.5-5.2C149.7,27.3,146.9,25.3,144.1,25.3z M144.2,33.4h-3.6
		v-5.8h3.6c1.9,0,2.9,1.5,2.9,2.9C147.1,31.8,146.1,33.4,144.2,33.4z"/>
	<path class="st1" d="M114.3,31.4v0.9h-0.1c-0.6-0.7-1.6-1.3-3-1.3c-2.9,0-5.5,2.5-5.5,5.7c0,3.2,2.6,5.7,5.5,5.7
		c1.4,0,2.4-0.6,3-1.3h0.1V42c0,2.2-1.2,3.4-3.1,3.4c-1.5,0-2.5-1.1-2.9-2l-2.2,0.9c0.6,1.5,2.3,3.4,5.1,3.4c3,0,5.4-1.7,5.4-6V31.4
		H114.3z M111.4,40.2c-1.7,0-3.2-1.5-3.2-3.4c0-2,1.4-3.5,3.2-3.5c1.7,0,3,1.5,3,3.5C114.4,38.8,113.1,40.2,111.4,40.2z"/>
	<polygon class="st1" points="118.4,42.1 120.9,42.1 120.9,25.3 118.4,25.3 	"/>
	<path class="st1" d="M127.8,40.2c-1.3,0-2.2-0.6-2.8-1.7l7.6-3.2l-0.3-0.6c-0.5-1.3-1.9-3.6-4.9-3.6c-2.9,0-5.4,2.3-5.4,5.7
		c0,3.2,2.4,5.7,5.7,5.7c2.6,0,4.1-1.6,4.8-2.5l-2-1.3C129.9,39.6,129,40.2,127.8,40.2z M127.6,33.3c1,0,1.8,0.5,2.1,1.2l-5.1,2.1
		C124.5,34.4,126.3,33.3,127.6,33.3z"/>
	<path class="st1" d="M71.5,32.8v2.4h5.8c-0.2,1.4-0.6,2.4-1.3,3.1c-0.8,0.8-2.2,1.8-4.5,1.8c-3.6,0-6.4-2.9-6.4-6.5
		c0-3.6,2.8-6.5,6.4-6.5c1.9,0,3.3,0.8,4.4,1.7l1.7-1.7c-1.5-1.4-3.4-2.4-6.1-2.4c-4.9,0-9,4-9,8.9s4.1,8.9,9,8.9
		c2.6,0,4.6-0.9,6.2-2.5c1.6-1.6,2.1-3.9,2.1-5.7c0-0.6,0-1.1-0.1-1.5L71.5,32.8L71.5,32.8z"/>
	<g>
		<path class="st1" d="M40.6,28L24.4,11.7c-0.2,0.4-0.3,0.8-0.3,1.4v29.7c0,0.6,0.1,1,0.3,1.4L40.6,28z"/>
		<path class="st1" d="M24.4,11.6C24.4,11.6,24.4,11.6,24.4,11.6C24.4,11.6,24.4,11.6,24.4,11.6z"/>
		<path class="st1" d="M41.6,27l5-5L27.5,11.2c-0.5-0.3-1.1-0.5-1.5-0.5c-0.2,0-0.4,0-0.6,0.1L41.6,27z"/>
		<path class="st1" d="M53.7,26l-5.9-3.3L42.5,28l5.3,5.3l5.9-3.3C55.5,28.8,55.5,27.1,53.7,26z"/>
		<path class="st1" d="M41.6,28.9L25.4,45.1c0.6,0.2,1.3,0.1,2.1-0.3l19.1-10.9L41.6,28.9z"/>
		<path class="st1" d="M24.4,44.3c0.1,0.1,0.2,0.3,0.3,0.4C24.5,44.5,24.5,44.4,24.4,44.3z"/>
	</g>
	<g>
		<path class="st0" d="M98.9,40.2L98.9,40.2L98.9,40.2z"/>
	</g>
</g>
</svg>
