<?xml version="1.0" encoding="utf-8"?>
<!-- Generator: Adobe Illustrator 27.9.0, SVG Export Plug-In . SVG Version: 6.00 Build 0)  -->
<svg version="1.1" id="katman_1" xmlns="http://www.w3.org/2000/svg" xmlns:xlink="http://www.w3.org/1999/xlink" x="0px" y="0px"
	 viewBox="0 0 269 75.5" style="enable-background:new 0 0 269 75.5;" xml:space="preserve">
<style type="text/css">
	.st0{fill-rule:evenodd;clip-rule:evenodd;}
	.st1{fill-rule:evenodd;clip-rule:evenodd;fill:#010202;}
	.st2{fill:none;stroke:#010202;stroke-width:0.2;}
	.st3{fill:#FFFFFF;}
	.st4{fill-rule:evenodd;clip-rule:evenodd;fill:#FBFBFB;}
	.st5{fill-rule:evenodd;clip-rule:evenodd;fill:#FFFFFF;}
</style>
<path d="M267.7,74.3H1.4V1.2h266.3V74.3z M4.4,71.3h260.3V4.2H4.4V71.3z"/>
<g>
	<g>
		<ellipse class="st0" cx="115.7" cy="48.3" rx="7.8" ry="7.8"/>
		<ellipse class="st0" cx="132.7" cy="48.3" rx="7.8" ry="7.8"/>
	</g>
	<path class="st1" d="M99.5,18.6c0,1.5-0.5,2.7-1.4,3.7c-1,1.1-2.4,1.6-4,1.6c-1.6,0-2.9-0.5-4-1.6c-1.1-1.1-1.7-2.5-1.7-4.1
		c0-1.6,0.6-3,1.7-4.1c1.1-1.1,2.4-1.6,4-1.6c0.8,0,1.5,0.2,2.2,0.5c0.7,0.3,1.3,0.7,1.7,1.2l-1,1c-0.7-0.9-1.7-1.3-3-1.3
		c-1.2,0-2.1,0.4-3,1.2c-0.8,0.8-1.3,1.9-1.3,3.2c0,1.3,0.4,2.3,1.3,3.2c0.8,0.8,1.8,1.2,3,1.2c1.2,0,2.2-0.4,3.1-1.2
		c0.5-0.5,0.8-1.3,0.9-2.2h-4v-1.3h5.3C99.4,18.1,99.5,18.4,99.5,18.6"/>
	<path class="st2" d="M99.5,18.6c0,1.5-0.5,2.7-1.4,3.7c-1,1.1-2.4,1.6-4,1.6c-1.6,0-2.9-0.5-4-1.6c-1.1-1.1-1.7-2.5-1.7-4.1
		c0-1.6,0.6-3,1.7-4.1c1.1-1.1,2.4-1.6,4-1.6c0.8,0,1.5,0.2,2.2,0.5c0.7,0.3,1.3,0.7,1.7,1.2l-1,1c-0.7-0.9-1.7-1.3-3-1.3
		c-1.2,0-2.1,0.4-3,1.2c-0.8,0.8-1.3,1.9-1.3,3.2c0,1.3,0.4,2.3,1.3,3.2c0.8,0.8,1.8,1.2,3,1.2c1.2,0,2.2-0.4,3.1-1.2
		c0.5-0.5,0.8-1.3,0.9-2.2h-4v-1.3h5.3C99.4,18.1,99.5,18.4,99.5,18.6L99.5,18.6z"/>
	<path class="st1" d="M107.9,14.1h-5v3.5h4.5v1.3h-4.5v3.5h5v1.3h-6.4V12.7h6.4V14.1z"/>
	<path class="st2" d="M107.9,14.1h-5v3.5h4.5v1.3h-4.5v3.5h5v1.3h-6.4V12.7h6.4V14.1z"/>
	<path class="st1" d="M113.8,23.7h-1.4v-9.6h-3.1v-1.3h7.5v1.3h-3.1L113.8,23.7L113.8,23.7z"/>
	<path class="st2" d="M113.8,23.7h-1.4v-9.6h-3.1v-1.3h7.5v1.3h-3.1L113.8,23.7L113.8,23.7z"/>
	<path class="st1" d="M122.3,23.7h1.4V12.7h-1.4V23.7z"/>
	<path class="st2" d="M122.3,23.7h1.4V12.7h-1.4V23.7z"/>
	<path class="st1" d="M129.9,23.7h-1.4v-9.6h-3.1v-1.3h7.5v1.3h-3.1L129.9,23.7L129.9,23.7z"/>
	<path class="st2" d="M129.9,23.7h-1.4v-9.6h-3.1v-1.3h7.5v1.3h-3.1L129.9,23.7L129.9,23.7z"/>
	<path class="st1" d="M140.2,21.3c0.8,0.8,1.8,1.2,3,1.2c1.2,0,2.2-0.4,3-1.2c0.8-0.8,1.2-1.9,1.2-3.1c0-1.3-0.4-2.3-1.2-3.1
		c-0.8-0.8-1.8-1.2-3-1.2c-1.2,0-2.2,0.4-3,1.2s-1.2,1.9-1.2,3.1C139,19.5,139.4,20.5,140.2,21.3 M147.2,22.3
		c-1.1,1.1-2.4,1.7-4,1.7c-1.6,0-2.9-0.6-4-1.7c-1.1-1.1-1.6-2.5-1.6-4.1c0-1.6,0.5-3,1.6-4.1s2.4-1.7,4-1.7c1.6,0,2.9,0.6,4,1.7
		s1.6,2.5,1.6,4C148.8,19.8,148.3,21.1,147.2,22.3"/>
	<path class="st2" d="M140.2,21.3c0.8,0.8,1.8,1.2,3,1.2c1.2,0,2.2-0.4,3-1.2c0.8-0.8,1.2-1.9,1.2-3.1c0-1.3-0.4-2.3-1.2-3.1
		c-0.8-0.8-1.8-1.2-3-1.2c-1.2,0-2.2,0.4-3,1.2s-1.2,1.9-1.2,3.1C139,19.5,139.4,20.5,140.2,21.3z M147.2,22.3
		c-1.1,1.1-2.4,1.7-4,1.7c-1.6,0-2.9-0.6-4-1.7c-1.1-1.1-1.6-2.5-1.6-4.1c0-1.6,0.5-3,1.6-4.1s2.4-1.7,4-1.7c1.6,0,2.9,0.6,4,1.7
		s1.6,2.5,1.6,4C148.8,19.8,148.3,21.1,147.2,22.3L147.2,22.3z"/>
	<path class="st1" d="M150.8,23.7V12.7h1.7l5.3,8.5h0.1l-0.1-2.1v-6.4h1.4v10.9h-1.5l-5.6-8.9h-0.1l0.1,2.1v6.8H150.8z"/>
	<path class="st2" d="M150.8,23.7V12.7h1.7l5.3,8.5h0.1l-0.1-2.1v-6.4h1.4v10.9h-1.5l-5.6-8.9h-0.1l0.1,2.1v6.8H150.8z"/>
	<rect x="203.4" y="32.8" class="st0" width="3.4" height="22.8"/>
	<polygon class="st0" points="234,41 230.1,50.9 230,50.9 226,41 222.3,41 228.4,54.8 224.9,62.5 228.5,62.5 237.8,41 	"/>
	<path class="st0" d="M215.2,40.5c-2.5,0-5,1.1-6.1,3.5l3,1.3c0.6-1.3,1.8-1.7,3.1-1.7c1.8,0,3.5,1.1,3.6,2.9v0.2
		c-0.6-0.4-1.9-0.9-3.5-0.9c-3.3,0-6.6,1.8-6.6,5.1c0,3.1,2.7,5,5.7,5c2.3,0,3.5-1,4.3-2.2h0.1v1.8h3.3v-8.7
		C222.1,42.8,219.1,40.5,215.2,40.5z"/>
	<path class="st0" d="M194.1,32.8h-8.1v22.8h3.4V47h4.7c3.8,0,7.5-2.7,7.5-7.1C201.5,35.6,197.8,32.8,194.1,32.8L194.1,32.8z"/>
	<path class="st0" d="M153.5,42.3h-0.1c-0.8-0.9-2.2-1.7-4.1-1.7c-3.9,0-7.4,3.4-7.4,7.8c0,4.3,3.6,7.7,7.4,7.7
		c1.8,0,3.3-0.8,4.1-1.8h0.1v1.1c0,3-1.6,4.6-4.1,4.6c-2.1,0-3.4-1.5-3.9-2.8l-3,1.2c0.9,2.1,3.1,4.6,6.9,4.6c4,0,7.4-2.4,7.4-8.1
		V41.1h-3.2V42.3L153.5,42.3z"/>
	<polygon class="st0" points="159.1,55.6 162.5,55.6 162.5,32.8 159.1,32.8 	"/>
	<path class="st0" d="M178.1,45.5c-0.6-1.7-2.6-4.9-6.6-4.9c-4,0-7.3,3.1-7.3,7.8c0,4.3,3.3,7.8,7.7,7.8c3.6,0,5.6-2.2,6.5-3.4
		l-2.6-1.8c-0.9,1.3-2.1,2.1-3.8,2.1c-1.7,0-3-0.8-3.8-2.4l10.4-4.3L178.1,45.5L178.1,45.5z"/>
	<path class="st0" d="M95.5,43v3.3h7.9c-0.2,1.9-0.9,3.2-1.8,4.1c-1.1,1.1-2.9,2.4-6.1,2.4c-4.8,0-8.6-3.9-8.6-8.7
		c0-4.8,3.8-8.7,8.6-8.7c2.6,0,4.5,1,5.9,2.3l2.3-2.3c-2-1.9-4.6-3.3-8.3-3.3c-6.6,0-12.2,5.4-12.2,12s5.6,12,12.2,12
		c3.6,0,6.3-1.2,8.4-3.4c2.2-2.2,2.8-5.2,2.8-7.7c0-0.8-0.1-1.5-0.2-2.1L95.5,43L95.5,43z"/>
	<g>
		<path class="st0" d="M53.7,36.4l-22.1-22c-0.3,0.5-0.4,1.1-0.4,1.9v40.3c0,0.8,0.2,1.4,0.4,1.9L53.7,36.4z"/>
		<path class="st0" d="M31.7,14.2C31.7,14.2,31.7,14.2,31.7,14.2C31.7,14.2,31.7,14.2,31.7,14.2z"/>
		<path class="st0" d="M55,35.1l6.8-6.8L35.8,13.6c-0.7-0.4-1.4-0.6-2-0.6c-0.3,0-0.6,0.1-0.9,0.2L55,35.1z"/>
		<path class="st0" d="M71.3,33.8l-7.9-4.5l-7.2,7.2l7.2,7.1l7.9-4.5C73.9,37.6,73.9,35.2,71.3,33.8z"/>
		<path class="st0" d="M55,37.7l-22,22c0.8,0.3,1.8,0.1,2.8-0.5l25.9-14.7L55,37.7z"/>
		<path class="st0" d="M31.7,58.5c0.1,0.2,0.2,0.4,0.4,0.5C31.9,58.9,31.8,58.7,31.7,58.5z"/>
	</g>
	<g>
		<path class="st3" d="M115.7,43.6c-2.3,0-4.4,1.9-4.4,4.7c0,2.8,2,4.7,4.4,4.7c2.4,0,4.4-1.9,4.4-4.7
			C120.1,45.5,118.1,43.6,115.7,43.6z"/>
		<path class="st3" d="M132.7,53L132.7,53L132.7,53z"/>
		<path class="st3" d="M137.1,48.3c0-2.8-2-4.7-4.4-4.7c-2.3,0-4.4,1.9-4.4,4.7c0,2.8,2,4.7,4.4,4.7C135,53,137.1,51.1,137.1,48.3z"
			/>
	</g>
	<path class="st4" d="M149.6,53c-2.3,0-4.3-2-4.3-4.7c0-2.7,2-4.7,4.3-4.7c2.3,0,4.1,2,4.1,4.7C153.8,51.1,151.9,53,149.6,53
		L149.6,53z"/>
	<path class="st5" d="M194.1,43.8h-4.8V36h4.8c2.5,0,4,2.1,4,3.9C198.1,41.7,196.7,43.8,194.1,43.8z"/>
	<path class="st5" d="M167.5,48.1c-0.1-3,2.3-4.5,4.1-4.5c1.3,0,2.5,0.7,2.9,1.6L167.5,48.1L167.5,48.1z"/>
	<path class="st4" d="M214.7,53c-1.1,0-2.7-0.6-2.7-1.9c0-1.8,1.9-2.4,3.6-2.4c1.5,0,2.2,0.3,3.1,0.8C218.5,51.5,216.7,53,214.7,53z
		"/>
</g>
</svg>
