<?xml version="1.0" encoding="utf-8"?>
<!-- Generator: Adobe Illustrator 27.9.0, SVG Export Plug-In . SVG Version: 6.00 Build 0)  -->
<svg version="1.1" id="Ebene_1" shape-rendering="auto"
	 xmlns="http://www.w3.org/2000/svg" xmlns:xlink="http://www.w3.org/1999/xlink" x="0px" y="0px" viewBox="0 0 118.8 118.8"
	 style="enable-background:new 0 0 118.8 118.8;" xml:space="preserve">
<style type="text/css">
	.st0{fill:none;}
</style>
<g>
	<rect x="2.3" y="2.2" class="st0" width="114.4" height="114.4"/>
	<path d="M0.1,0v118.7h118.7V0H0.1z M2.3,116.6V2.2h114.4v114.4H2.3z"/>
</g>
<g transform="translate(9, 9)scale(0.95)">
	<g>
		<rect x="0.3" y="29.4" width="3.6" height="3.6"/>
		<rect x="0.3" y="33" width="3.6" height="3.6"/>
		<rect x="0.3" y="47.6" width="3.6" height="3.6"/>
		<rect x="0.3" y="51.2" width="3.6" height="3.6"/>
		<rect x="0.3" y="54.9" width="3.6" height="3.6"/>
		<rect x="0.3" y="62.1" width="3.6" height="3.6"/>
		<rect x="0.3" y="65.8" width="3.6" height="3.6"/>
		<rect x="3.9" y="33" width="3.6" height="3.6"/>
		<rect x="3.9" y="36.7" width="3.6" height="3.6"/>
		<rect x="3.9" y="40.3" width="3.6" height="3.6"/>
		<rect x="3.9" y="44" width="3.6" height="3.6"/>
		<rect x="3.9" y="54.9" width="3.6" height="3.6"/>
		<rect x="3.9" y="62.1" width="3.6" height="3.6"/>
		<rect x="3.9" y="65.8" width="3.6" height="3.6"/>
		<rect x="3.9" y="69.4" width="3.6" height="3.6"/>
		<rect x="7.6" y="29.4" width="3.6" height="3.6"/>
		<rect x="7.6" y="36.7" width="3.6" height="3.6"/>
		<rect x="7.6" y="40.3" width="3.6" height="3.6"/>
		<rect x="7.6" y="62.1" width="3.6" height="3.6"/>
		<rect x="7.6" y="69.4" width="3.6" height="3.6"/>
		<rect x="7.6" y="73.1" width="3.6" height="3.6"/>
		<rect x="11.2" y="29.4" width="3.6" height="3.6"/>
		<rect x="11.2" y="36.7" width="3.6" height="3.6"/>
		<rect x="11.2" y="40.3" width="3.6" height="3.6"/>
		<rect x="11.2" y="47.6" width="3.6" height="3.6"/>
		<rect x="11.2" y="54.9" width="3.6" height="3.6"/>
		<rect x="11.2" y="58.5" width="3.6" height="3.6"/>
		<rect x="11.2" y="65.8" width="3.6" height="3.6"/>
		<rect x="14.8" y="33" width="3.6" height="3.6"/>
		<rect x="14.8" y="36.7" width="3.6" height="3.6"/>
		<rect x="14.8" y="47.6" width="3.6" height="3.6"/>
		<rect x="14.8" y="58.5" width="3.6" height="3.6"/>
		<rect x="14.8" y="73.1" width="3.6" height="3.6"/>
		<rect x="18.5" y="29.4" width="3.6" height="3.6"/>
		<rect x="18.5" y="36.7" width="3.6" height="3.6"/>
		<rect x="18.5" y="47.6" width="3.6" height="3.6"/>
		<rect x="18.5" y="54.9" width="3.6" height="3.6"/>
		<rect x="18.5" y="58.5" width="3.6" height="3.6"/>
		<rect x="18.5" y="69.4" width="3.6" height="3.6"/>
		<rect x="22.1" y="29.4" width="3.6" height="3.6"/>
		<rect x="22.1" y="36.7" width="3.6" height="3.6"/>
		<rect x="22.1" y="44" width="3.6" height="3.6"/>
		<rect x="22.1" y="51.2" width="3.6" height="3.6"/>
		<rect x="22.1" y="58.5" width="3.6" height="3.6"/>
		<rect x="22.1" y="65.8" width="3.6" height="3.6"/>
		<rect x="22.1" y="73.1" width="3.6" height="3.6"/>
		<rect x="25.8" y="29.4" width="3.6" height="3.6"/>
		<rect x="25.8" y="33" width="3.6" height="3.6"/>
		<rect x="25.8" y="44" width="3.6" height="3.6"/>
		<rect x="25.8" y="47.6" width="3.6" height="3.6"/>
		<rect x="25.8" y="51.2" width="3.6" height="3.6"/>
		<rect x="25.8" y="62.1" width="3.6" height="3.6"/>
		<rect x="25.8" y="65.8" width="3.6" height="3.6"/>
		<rect x="25.8" y="73.1" width="3.6" height="3.6"/>
		<rect x="29.4" y="3.9" width="3.6" height="3.6"/>
		<rect x="29.4" y="11.2" width="3.6" height="3.6"/>
		<rect x="29.4" y="18.5" width="3.6" height="3.6"/>
		<rect x="29.4" y="22.1" width="3.6" height="3.6"/>
		<rect x="29.4" y="25.8" width="3.6" height="3.6"/>
		<rect x="29.4" y="29.4" width="3.6" height="3.6"/>
		<rect x="29.4" y="33" width="3.6" height="3.6"/>
		<rect x="29.4" y="40.3" width="3.6" height="3.6"/>
		<rect x="29.4" y="58.5" width="3.6" height="3.6"/>
		<rect x="29.4" y="62.1" width="3.6" height="3.6"/>
		<rect x="29.4" y="65.8" width="3.6" height="3.6"/>
		<rect x="29.4" y="76.7" width="3.6" height="3.6"/>
		<rect x="29.4" y="80.3" width="3.6" height="3.6"/>
		<rect x="29.4" y="84" width="3.6" height="3.6"/>
		<rect x="29.4" y="91.3" width="3.6" height="3.6"/>
		<rect x="29.4" y="94.9" width="3.6" height="3.6"/>
		<rect x="29.4" y="102.2" width="3.6" height="3.6"/>
		<rect x="33" y="0.3" width="3.6" height="3.6"/>
		<rect x="33" y="14.8" width="3.6" height="3.6"/>
		<rect x="33" y="18.5" width="3.6" height="3.6"/>
		<rect x="33" y="29.4" width="3.6" height="3.6"/>
		<rect x="33" y="36.7" width="3.6" height="3.6"/>
		<rect x="33" y="47.6" width="3.6" height="3.6"/>
		<rect x="33" y="62.1" width="3.6" height="3.6"/>
		<rect x="33" y="65.8" width="3.6" height="3.6"/>
		<rect x="33" y="69.4" width="3.6" height="3.6"/>
		<rect x="33" y="80.3" width="3.6" height="3.6"/>
		<rect x="33" y="94.9" width="3.6" height="3.6"/>
		<rect x="33" y="102.2" width="3.6" height="3.6"/>
		<rect x="36.7" y="18.5" width="3.6" height="3.6"/>
		<rect x="36.7" y="22.1" width="3.6" height="3.6"/>
		<rect x="36.7" y="25.8" width="3.6" height="3.6"/>
		<rect x="36.7" y="36.7" width="3.6" height="3.6"/>
		<rect x="36.7" y="54.9" width="3.6" height="3.6"/>
		<rect x="36.7" y="58.5" width="3.6" height="3.6"/>
		<rect x="36.7" y="65.8" width="3.6" height="3.6"/>
		<rect x="36.7" y="69.4" width="3.6" height="3.6"/>
		<rect x="36.7" y="80.3" width="3.6" height="3.6"/>
		<rect x="36.7" y="84" width="3.6" height="3.6"/>
		<rect x="36.7" y="87.6" width="3.6" height="3.6"/>
		<rect x="36.7" y="98.5" width="3.6" height="3.6"/>
		<rect x="40.3" y="7.6" width="3.6" height="3.6"/>
		<rect x="40.3" y="11.2" width="3.6" height="3.6"/>
		<rect x="40.3" y="29.4" width="3.6" height="3.6"/>
		<rect x="40.3" y="33" width="3.6" height="3.6"/>
		<rect x="40.3" y="36.7" width="3.6" height="3.6"/>
		<rect x="40.3" y="40.3" width="3.6" height="3.6"/>
		<rect x="40.3" y="51.2" width="3.6" height="3.6"/>
		<rect x="40.3" y="58.5" width="3.6" height="3.6"/>
		<rect x="40.3" y="65.8" width="3.6" height="3.6"/>
		<rect x="40.3" y="76.7" width="3.6" height="3.6"/>
		<rect x="40.3" y="80.3" width="3.6" height="3.6"/>
		<rect x="40.3" y="87.6" width="3.6" height="3.6"/>
		<rect x="40.3" y="94.9" width="3.6" height="3.6"/>
		<rect x="40.3" y="98.5" width="3.6" height="3.6"/>
		<rect x="44" y="3.9" width="3.6" height="3.6"/>
		<rect x="44" y="22.1" width="3.6" height="3.6"/>
		<rect x="44" y="29.4" width="3.6" height="3.6"/>
		<rect x="44" y="36.7" width="3.6" height="3.6"/>
		<rect x="44" y="40.3" width="3.6" height="3.6"/>
		<rect x="44" y="51.2" width="3.6" height="3.6"/>
		<rect x="44" y="54.9" width="3.6" height="3.6"/>
		<rect x="44" y="62.1" width="3.6" height="3.6"/>
		<rect x="44" y="73.1" width="3.6" height="3.6"/>
		<rect x="44" y="80.3" width="3.6" height="3.6"/>
		<rect x="44" y="84" width="3.6" height="3.6"/>
		<rect x="44" y="91.3" width="3.6" height="3.6"/>
		<rect x="44" y="94.9" width="3.6" height="3.6"/>
		<rect x="47.6" y="7.6" width="3.6" height="3.6"/>
		<rect x="47.6" y="11.2" width="3.6" height="3.6"/>
		<rect x="47.6" y="14.8" width="3.6" height="3.6"/>
		<rect x="47.6" y="36.7" width="3.6" height="3.6"/>
		<rect x="47.6" y="40.3" width="3.6" height="3.6"/>
		<rect x="47.6" y="44" width="3.6" height="3.6"/>
		<rect x="47.6" y="51.2" width="3.6" height="3.6"/>
		<rect x="47.6" y="54.9" width="3.6" height="3.6"/>
		<rect x="47.6" y="65.8" width="3.6" height="3.6"/>
		<rect x="47.6" y="69.4" width="3.6" height="3.6"/>
		<rect x="47.6" y="73.1" width="3.6" height="3.6"/>
		<rect x="47.6" y="76.7" width="3.6" height="3.6"/>
		<rect x="47.6" y="84" width="3.6" height="3.6"/>
		<rect x="47.6" y="91.3" width="3.6" height="3.6"/>
		<rect x="47.6" y="98.5" width="3.6" height="3.6"/>
		<rect x="51.2" y="3.9" width="3.6" height="3.6"/>
		<rect x="51.2" y="7.6" width="3.6" height="3.6"/>
		<rect x="51.2" y="11.2" width="3.6" height="3.6"/>
		<rect x="51.2" y="14.8" width="3.6" height="3.6"/>
		<rect x="51.2" y="18.5" width="3.6" height="3.6"/>
		<rect x="51.2" y="22.1" width="3.6" height="3.6"/>
		<rect x="51.2" y="25.8" width="3.6" height="3.6"/>
		<rect x="51.2" y="29.4" width="3.6" height="3.6"/>
		<rect x="51.2" y="44" width="3.6" height="3.6"/>
		<rect x="51.2" y="58.5" width="3.6" height="3.6"/>
		<rect x="51.2" y="73.1" width="3.6" height="3.6"/>
		<rect x="51.2" y="76.7" width="3.6" height="3.6"/>
		<rect x="51.2" y="80.3" width="3.6" height="3.6"/>
		<rect x="51.2" y="102.2" width="3.6" height="3.6"/>
		<rect x="54.9" y="0.3" width="3.6" height="3.6"/>
		<rect x="54.9" y="3.9" width="3.6" height="3.6"/>
		<rect x="54.9" y="14.8" width="3.6" height="3.6"/>
		<rect x="54.9" y="29.4" width="3.6" height="3.6"/>
		<rect x="54.9" y="33" width="3.6" height="3.6"/>
		<rect x="54.9" y="36.7" width="3.6" height="3.6"/>
		<rect x="54.9" y="40.3" width="3.6" height="3.6"/>
		<rect x="54.9" y="47.6" width="3.6" height="3.6"/>
		<rect x="54.9" y="51.2" width="3.6" height="3.6"/>
		<rect x="54.9" y="69.4" width="3.6" height="3.6"/>
		<rect x="54.9" y="73.1" width="3.6" height="3.6"/>
		<rect x="54.9" y="84" width="3.6" height="3.6"/>
		<rect x="58.5" y="7.6" width="3.6" height="3.6"/>
		<rect x="58.5" y="11.2" width="3.6" height="3.6"/>
		<rect x="58.5" y="18.5" width="3.6" height="3.6"/>
		<rect x="58.5" y="22.1" width="3.6" height="3.6"/>
		<rect x="58.5" y="40.3" width="3.6" height="3.6"/>
		<rect x="58.5" y="44" width="3.6" height="3.6"/>
		<rect x="58.5" y="47.6" width="3.6" height="3.6"/>
		<rect x="58.5" y="54.9" width="3.6" height="3.6"/>
		<rect x="58.5" y="58.5" width="3.6" height="3.6"/>
		<rect x="58.5" y="73.1" width="3.6" height="3.6"/>
		<rect x="58.5" y="76.7" width="3.6" height="3.6"/>
		<rect x="58.5" y="84" width="3.6" height="3.6"/>
		<rect x="58.5" y="98.5" width="3.6" height="3.6"/>
		<rect x="58.5" y="102.2" width="3.6" height="3.6"/>
		<rect x="62.1" y="7.6" width="3.6" height="3.6"/>
		<rect x="62.1" y="14.8" width="3.6" height="3.6"/>
		<rect x="62.1" y="18.5" width="3.6" height="3.6"/>
		<rect x="62.1" y="25.8" width="3.6" height="3.6"/>
		<rect x="62.1" y="33" width="3.6" height="3.6"/>
		<rect x="62.1" y="44" width="3.6" height="3.6"/>
		<rect x="62.1" y="47.6" width="3.6" height="3.6"/>
		<rect x="62.1" y="51.2" width="3.6" height="3.6"/>
		<rect x="62.1" y="54.9" width="3.6" height="3.6"/>
		<rect x="62.1" y="69.4" width="3.6" height="3.6"/>
		<rect x="62.1" y="76.7" width="3.6" height="3.6"/>
		<rect x="62.1" y="91.3" width="3.6" height="3.6"/>
		<rect x="62.1" y="94.9" width="3.6" height="3.6"/>
		<rect x="62.1" y="98.5" width="3.6" height="3.6"/>
		<rect x="62.1" y="102.2" width="3.6" height="3.6"/>
		<rect x="65.8" y="0.3" width="3.6" height="3.6"/>
		<rect x="65.8" y="7.6" width="3.6" height="3.6"/>
		<rect x="65.8" y="14.8" width="3.6" height="3.6"/>
		<rect x="65.8" y="22.1" width="3.6" height="3.6"/>
		<rect x="65.8" y="33" width="3.6" height="3.6"/>
		<rect x="65.8" y="44" width="3.6" height="3.6"/>
		<rect x="65.8" y="47.6" width="3.6" height="3.6"/>
		<rect x="65.8" y="51.2" width="3.6" height="3.6"/>
		<rect x="65.8" y="62.1" width="3.6" height="3.6"/>
		<rect x="65.8" y="65.8" width="3.6" height="3.6"/>
		<rect x="65.8" y="76.7" width="3.6" height="3.6"/>
		<rect x="65.8" y="87.6" width="3.6" height="3.6"/>
		<rect x="65.8" y="94.9" width="3.6" height="3.6"/>
		<rect x="65.8" y="98.5" width="3.6" height="3.6"/>
		<rect x="65.8" y="102.2" width="3.6" height="3.6"/>
		<rect x="69.4" y="11.2" width="3.6" height="3.6"/>
		<rect x="69.4" y="14.8" width="3.6" height="3.6"/>
		<rect x="69.4" y="40.3" width="3.6" height="3.6"/>
		<rect x="69.4" y="44" width="3.6" height="3.6"/>
		<rect x="69.4" y="47.6" width="3.6" height="3.6"/>
		<rect x="69.4" y="54.9" width="3.6" height="3.6"/>
		<rect x="69.4" y="58.5" width="3.6" height="3.6"/>
		<rect x="69.4" y="62.1" width="3.6" height="3.6"/>
		<rect x="69.4" y="73.1" width="3.6" height="3.6"/>
		<rect x="69.4" y="91.3" width="3.6" height="3.6"/>
		<rect x="69.4" y="98.5" width="3.6" height="3.6"/>
		<rect x="73.1" y="0.3" width="3.6" height="3.6"/>
		<rect x="73.1" y="22.1" width="3.6" height="3.6"/>
		<rect x="73.1" y="29.4" width="3.6" height="3.6"/>
		<rect x="73.1" y="44" width="3.6" height="3.6"/>
		<rect x="73.1" y="51.2" width="3.6" height="3.6"/>
		<rect x="73.1" y="58.5" width="3.6" height="3.6"/>
		<rect x="73.1" y="65.8" width="3.6" height="3.6"/>
		<rect x="73.1" y="73.1" width="3.6" height="3.6"/>
		<rect x="73.1" y="76.7" width="3.6" height="3.6"/>
		<rect x="73.1" y="80.3" width="3.6" height="3.6"/>
		<rect x="73.1" y="84" width="3.6" height="3.6"/>
		<rect x="73.1" y="87.6" width="3.6" height="3.6"/>
		<rect x="73.1" y="91.3" width="3.6" height="3.6"/>
		<rect x="73.1" y="94.9" width="3.6" height="3.6"/>
		<rect x="76.7" y="29.4" width="3.6" height="3.6"/>
		<rect x="76.7" y="36.7" width="3.6" height="3.6"/>
		<rect x="76.7" y="40.3" width="3.6" height="3.6"/>
		<rect x="76.7" y="58.5" width="3.6" height="3.6"/>
		<rect x="76.7" y="62.1" width="3.6" height="3.6"/>
		<rect x="76.7" y="69.4" width="3.6" height="3.6"/>
		<rect x="76.7" y="73.1" width="3.6" height="3.6"/>
		<rect x="76.7" y="87.6" width="3.6" height="3.6"/>
		<rect x="76.7" y="98.5" width="3.6" height="3.6"/>
		<rect x="76.7" y="102.2" width="3.6" height="3.6"/>
		<rect x="80.3" y="29.4" width="3.6" height="3.6"/>
		<rect x="80.3" y="47.6" width="3.6" height="3.6"/>
		<rect x="80.3" y="51.2" width="3.6" height="3.6"/>
		<rect x="80.3" y="58.5" width="3.6" height="3.6"/>
		<rect x="80.3" y="65.8" width="3.6" height="3.6"/>
		<rect x="80.3" y="73.1" width="3.6" height="3.6"/>
		<rect x="80.3" y="80.3" width="3.6" height="3.6"/>
		<rect x="80.3" y="87.6" width="3.6" height="3.6"/>
		<rect x="80.3" y="91.3" width="3.6" height="3.6"/>
		<rect x="80.3" y="94.9" width="3.6" height="3.6"/>
		<rect x="80.3" y="98.5" width="3.6" height="3.6"/>
		<rect x="84" y="29.4" width="3.6" height="3.6"/>
		<rect x="84" y="33" width="3.6" height="3.6"/>
		<rect x="84" y="44" width="3.6" height="3.6"/>
		<rect x="84" y="51.2" width="3.6" height="3.6"/>
		<rect x="84" y="65.8" width="3.6" height="3.6"/>
		<rect x="84" y="73.1" width="3.6" height="3.6"/>
		<rect x="84" y="87.6" width="3.6" height="3.6"/>
		<rect x="84" y="94.9" width="3.6" height="3.6"/>
		<rect x="84" y="102.2" width="3.6" height="3.6"/>
		<rect x="87.6" y="33" width="3.6" height="3.6"/>
		<rect x="87.6" y="36.7" width="3.6" height="3.6"/>
		<rect x="87.6" y="40.3" width="3.6" height="3.6"/>
		<rect x="87.6" y="44" width="3.6" height="3.6"/>
		<rect x="87.6" y="58.5" width="3.6" height="3.6"/>
		<rect x="87.6" y="65.8" width="3.6" height="3.6"/>
		<rect x="87.6" y="73.1" width="3.6" height="3.6"/>
		<rect x="87.6" y="76.7" width="3.6" height="3.6"/>
		<rect x="87.6" y="80.3" width="3.6" height="3.6"/>
		<rect x="87.6" y="84" width="3.6" height="3.6"/>
		<rect x="87.6" y="87.6" width="3.6" height="3.6"/>
		<rect x="87.6" y="91.3" width="3.6" height="3.6"/>
		<rect x="87.6" y="98.5" width="3.6" height="3.6"/>
		<rect x="91.3" y="29.4" width="3.6" height="3.6"/>
		<rect x="91.3" y="33" width="3.6" height="3.6"/>
		<rect x="91.3" y="36.7" width="3.6" height="3.6"/>
		<rect x="91.3" y="40.3" width="3.6" height="3.6"/>
		<rect x="91.3" y="44" width="3.6" height="3.6"/>
		<rect x="91.3" y="51.2" width="3.6" height="3.6"/>
		<rect x="91.3" y="54.9" width="3.6" height="3.6"/>
		<rect x="91.3" y="65.8" width="3.6" height="3.6"/>
		<rect x="91.3" y="69.4" width="3.6" height="3.6"/>
		<rect x="91.3" y="73.1" width="3.6" height="3.6"/>
		<rect x="91.3" y="76.7" width="3.6" height="3.6"/>
		<rect x="91.3" y="80.3" width="3.6" height="3.6"/>
		<rect x="91.3" y="87.6" width="3.6" height="3.6"/>
		<rect x="91.3" y="94.9" width="3.6" height="3.6"/>
		<rect x="91.3" y="102.2" width="3.6" height="3.6"/>
		<rect x="94.9" y="33" width="3.6" height="3.6"/>
		<rect x="94.9" y="36.7" width="3.6" height="3.6"/>
		<rect x="94.9" y="47.6" width="3.6" height="3.6"/>
		<rect x="94.9" y="51.2" width="3.6" height="3.6"/>
		<rect x="94.9" y="54.9" width="3.6" height="3.6"/>
		<rect x="94.9" y="58.5" width="3.6" height="3.6"/>
		<rect x="94.9" y="69.4" width="3.6" height="3.6"/>
		<rect x="94.9" y="73.1" width="3.6" height="3.6"/>
		<rect x="94.9" y="87.6" width="3.6" height="3.6"/>
		<rect x="94.9" y="91.3" width="3.6" height="3.6"/>
		<rect x="94.9" y="102.2" width="3.6" height="3.6"/>
		<rect x="98.5" y="29.4" width="3.6" height="3.6"/>
		<rect x="98.5" y="33" width="3.6" height="3.6"/>
		<rect x="98.5" y="36.7" width="3.6" height="3.6"/>
		<rect x="98.5" y="44" width="3.6" height="3.6"/>
		<rect x="98.5" y="47.6" width="3.6" height="3.6"/>
		<rect x="98.5" y="51.2" width="3.6" height="3.6"/>
		<rect x="98.5" y="58.5" width="3.6" height="3.6"/>
		<rect x="98.5" y="62.1" width="3.6" height="3.6"/>
		<rect x="98.5" y="73.1" width="3.6" height="3.6"/>
		<rect x="98.5" y="84" width="3.6" height="3.6"/>
		<rect x="98.5" y="91.3" width="3.6" height="3.6"/>
		<rect x="98.5" y="98.5" width="3.6" height="3.6"/>
		<rect x="102.2" y="33" width="3.6" height="3.6"/>
		<rect x="102.2" y="36.7" width="3.6" height="3.6"/>
		<rect x="102.2" y="47.6" width="3.6" height="3.6"/>
		<rect x="102.2" y="54.9" width="3.6" height="3.6"/>
		<rect x="102.2" y="62.1" width="3.6" height="3.6"/>
		<rect x="102.2" y="69.4" width="3.6" height="3.6"/>
		<rect x="102.2" y="73.1" width="3.6" height="3.6"/>
		<rect x="102.2" y="76.7" width="3.6" height="3.6"/>
		<rect x="102.2" y="87.6" width="3.6" height="3.6"/>
		<rect x="102.2" y="98.5" width="3.6" height="3.6"/>
	</g>
	<g>
		<rect x="0.3" y="0.3" width="3.6" height="3.6"/>
		<rect x="0.3" y="3.9" width="3.6" height="3.6"/>
		<rect x="0.3" y="7.6" width="3.6" height="3.6"/>
		<rect x="0.3" y="11.2" width="3.6" height="3.6"/>
		<rect x="0.3" y="14.8" width="3.6" height="3.6"/>
		<rect x="0.3" y="18.5" width="3.6" height="3.6"/>
		<rect x="0.3" y="22.1" width="3.6" height="3.6"/>
		<rect x="3.9" y="0.3" width="3.6" height="3.6"/>
		<rect x="3.9" y="22.1" width="3.6" height="3.6"/>
		<rect x="7.6" y="0.3" width="3.6" height="3.6"/>
		<rect x="7.6" y="22.1" width="3.6" height="3.6"/>
		<rect x="11.2" y="0.3" width="3.6" height="3.6"/>
		<rect x="11.2" y="22.1" width="3.6" height="3.6"/>
		<rect x="14.8" y="0.3" width="3.6" height="3.6"/>
		<rect x="14.8" y="22.1" width="3.6" height="3.6"/>
		<rect x="18.5" y="0.3" width="3.6" height="3.6"/>
		<rect x="18.5" y="22.1" width="3.6" height="3.6"/>
		<rect x="22.1" y="0.3" width="3.6" height="3.6"/>
		<rect x="22.1" y="3.9" width="3.6" height="3.6"/>
		<rect x="22.1" y="7.6" width="3.6" height="3.6"/>
		<rect x="22.1" y="11.2" width="3.6" height="3.6"/>
		<rect x="22.1" y="14.8" width="3.6" height="3.6"/>
		<rect x="22.1" y="18.5" width="3.6" height="3.6"/>
		<rect x="22.1" y="22.1" width="3.6" height="3.6"/>
	</g>
	<g>
		<rect x="7.6" y="7.6" width="3.6" height="3.6"/>
		<rect x="7.6" y="11.2" width="3.6" height="3.6"/>
		<rect x="7.6" y="14.8" width="3.6" height="3.6"/>
		<rect x="11.2" y="7.6" width="3.6" height="3.6"/>
		<rect x="11.2" y="11.2" width="3.6" height="3.6"/>
		<rect x="11.2" y="14.8" width="3.6" height="3.6"/>
		<rect x="14.8" y="7.6" width="3.6" height="3.6"/>
		<rect x="14.8" y="11.2" width="3.6" height="3.6"/>
		<rect x="14.8" y="14.8" width="3.6" height="3.6"/>
	</g>
	<g>
		<rect x="80.3" y="0.3" width="3.6" height="3.6"/>
		<rect x="80.3" y="3.9" width="3.6" height="3.6"/>
		<rect x="80.3" y="7.6" width="3.6" height="3.6"/>
		<rect x="80.3" y="11.2" width="3.6" height="3.6"/>
		<rect x="80.3" y="14.8" width="3.6" height="3.6"/>
		<rect x="80.3" y="18.5" width="3.6" height="3.6"/>
		<rect x="80.3" y="22.1" width="3.6" height="3.6"/>
		<rect x="84" y="0.3" width="3.6" height="3.6"/>
		<rect x="84" y="22.1" width="3.6" height="3.6"/>
		<rect x="87.6" y="0.3" width="3.6" height="3.6"/>
		<rect x="87.6" y="22.1" width="3.6" height="3.6"/>
		<rect x="91.3" y="0.3" width="3.6" height="3.6"/>
		<rect x="91.3" y="22.1" width="3.6" height="3.6"/>
		<rect x="94.9" y="0.3" width="3.6" height="3.6"/>
		<rect x="94.9" y="22.1" width="3.6" height="3.6"/>
		<rect x="98.5" y="0.3" width="3.6" height="3.6"/>
		<rect x="98.5" y="22.1" width="3.6" height="3.6"/>
		<rect x="102.2" y="0.3" width="3.6" height="3.6"/>
		<rect x="102.2" y="3.9" width="3.6" height="3.6"/>
		<rect x="102.2" y="7.6" width="3.6" height="3.6"/>
		<rect x="102.2" y="11.2" width="3.6" height="3.6"/>
		<rect x="102.2" y="14.8" width="3.6" height="3.6"/>
		<rect x="102.2" y="18.5" width="3.6" height="3.6"/>
		<rect x="102.2" y="22.1" width="3.6" height="3.6"/>
	</g>
	<g>
		<rect x="87.6" y="7.6" width="3.6" height="3.6"/>
		<rect x="87.6" y="11.2" width="3.6" height="3.6"/>
		<rect x="87.6" y="14.8" width="3.6" height="3.6"/>
		<rect x="91.3" y="7.6" width="3.6" height="3.6"/>
		<rect x="91.3" y="11.2" width="3.6" height="3.6"/>
		<rect x="91.3" y="14.8" width="3.6" height="3.6"/>
		<rect x="94.9" y="7.6" width="3.6" height="3.6"/>
		<rect x="94.9" y="11.2" width="3.6" height="3.6"/>
		<rect x="94.9" y="14.8" width="3.6" height="3.6"/>
	</g>
	<g>
		<rect x="0.3" y="80.3" width="3.6" height="3.6"/>
		<rect x="0.3" y="84" width="3.6" height="3.6"/>
		<rect x="0.3" y="87.6" width="3.6" height="3.6"/>
		<rect x="0.3" y="91.3" width="3.6" height="3.6"/>
		<rect x="0.3" y="94.9" width="3.6" height="3.6"/>
		<rect x="0.3" y="98.5" width="3.6" height="3.6"/>
		<rect x="0.3" y="102.2" width="3.6" height="3.6"/>
		<rect x="3.9" y="80.3" width="3.6" height="3.6"/>
		<rect x="3.9" y="102.2" width="3.6" height="3.6"/>
		<rect x="7.6" y="80.3" width="3.6" height="3.6"/>
		<rect x="7.6" y="102.2" width="3.6" height="3.6"/>
		<rect x="11.2" y="80.3" width="3.6" height="3.6"/>
		<rect x="11.2" y="102.2" width="3.6" height="3.6"/>
		<rect x="14.8" y="80.3" width="3.6" height="3.6"/>
		<rect x="14.8" y="102.2" width="3.6" height="3.6"/>
		<rect x="18.5" y="80.3" width="3.6" height="3.6"/>
		<rect x="18.5" y="102.2" width="3.6" height="3.6"/>
		<rect x="22.1" y="80.3" width="3.6" height="3.6"/>
		<rect x="22.1" y="84" width="3.6" height="3.6"/>
		<rect x="22.1" y="87.6" width="3.6" height="3.6"/>
		<rect x="22.1" y="91.3" width="3.6" height="3.6"/>
		<rect x="22.1" y="94.9" width="3.6" height="3.6"/>
		<rect x="22.1" y="98.5" width="3.6" height="3.6"/>
		<rect x="22.1" y="102.2" width="3.6" height="3.6"/>
	</g>
	<g>
		<rect x="7.6" y="87.6" width="3.6" height="3.6"/>
		<rect x="7.6" y="91.3" width="3.6" height="3.6"/>
		<rect x="7.6" y="94.9" width="3.6" height="3.6"/>
		<rect x="11.2" y="87.6" width="3.6" height="3.6"/>
		<rect x="11.2" y="91.3" width="3.6" height="3.6"/>
		<rect x="11.2" y="94.9" width="3.6" height="3.6"/>
		<rect x="14.8" y="87.6" width="3.6" height="3.6"/>
		<rect x="14.8" y="91.3" width="3.6" height="3.6"/>
		<rect x="14.8" y="94.9" width="3.6" height="3.6"/>
	</g>
</g>
</svg>
